<svg width="1920" height="550" viewBox="0 0 1920 550" fill="none" xmlns="http://www.w3.org/2000/svg">
<g filter="url(#filter0_f_105_992)">
<path d="M1527.79 36.2859C1528.41 35.7776 1529.19 35.5 1530 35.5H1921C1922.93 35.5 1924.5 37.067 1924.5 39V369.421C1924.5 371.354 1922.93 372.921 1921 372.921H1756.28L1682.25 435.134C1681.62 435.664 1680.82 435.954 1680 435.954H406.769L295.744 528.686C295.114 529.212 294.32 529.5 293.5 529.5H0C-1.93298 529.5 -3.5 527.933 -3.5 526V183.936C-3.5 182.003 -1.93298 180.436 0 180.436H71.7754L143.318 123.386C143.938 122.891 144.707 122.622 145.5 122.622H1421.76L1527.79 36.2859Z" stroke="url(#paint0_linear_105_992)" stroke-width="7" stroke-linejoin="round"/>
</g>
<g filter="url(#filter1_bdi_105_992)">
<path d="M1527.79 36.2859C1528.41 35.7776 1529.19 35.5 1530 35.5H1921C1922.93 35.5 1924.5 37.067 1924.5 39V369.421C1924.5 371.354 1922.93 372.921 1921 372.921H1756.28L1682.25 435.134C1681.62 435.664 1680.82 435.954 1680 435.954H406.769L295.744 528.686C295.114 529.212 294.32 529.5 293.5 529.5H0C-1.93298 529.5 -3.5 527.933 -3.5 526V183.936C-3.5 182.003 -1.93298 180.436 0 180.436H71.7754L143.318 123.386C143.938 122.891 144.707 122.622 145.5 122.622H1421.76L1527.79 36.2859Z" stroke="url(#paint1_linear_105_992)" stroke-width="7" stroke-linejoin="round" shape-rendering="crispEdges"/>
</g>
<g filter="url(#filter2_bdi_105_992)">
<path d="M1530 30H1921V360.421H1755L1680 423.454H405.5L293.5 517H0V174.936H73L145.5 117.122H1423L1530 30Z" fill="white" fill-opacity="0.06" shape-rendering="crispEdges"/>
<path d="M1529.68 29.6123C1529.77 29.5397 1529.88 29.5 1530 29.5H1921C1921.28 29.5 1921.5 29.7239 1921.5 30V360.421C1921.5 360.697 1921.28 360.921 1921 360.921H1755.18L1680.32 423.837C1680.23 423.913 1680.12 423.954 1680 423.954H405.681L293.821 517.384C293.731 517.459 293.617 517.5 293.5 517.5H0C-0.276123 517.5 -0.5 517.276 -0.5 517V174.936C-0.5 174.66 -0.276123 174.436 0 174.436H72.825L145.188 116.731C145.277 116.66 145.387 116.622 145.5 116.622H1422.82L1529.68 29.6123Z" stroke="url(#paint2_linear_105_992)" stroke-linejoin="round" shape-rendering="crispEdges"/>
</g>
<mask id="mask0_105_992" style="mask-type:alpha" maskUnits="userSpaceOnUse" x="0" y="-173" width="1921" height="662">
<path d="M1530 -173H1921V332.421H1755L1680 395.454H405.5L293.5 489H0V-28.0643H73L145.5 -85.878H1423L1530 -173Z" fill="#242424"/>
</mask>
<g mask="url(#mask0_105_992)">
<mask id="mask1_105_992" style="mask-type:alpha" maskUnits="userSpaceOnUse" x="-2" y="0" width="1925" height="491">
<path d="M1530 2H1921V332.421H1755L1680 395.454H405.5L293.5 489H0V146.936H73L145.5 89.122H1423L1530 2Z" fill="#17191A" stroke="url(#paint3_linear_105_992)" stroke-width="3" stroke-linejoin="round"/>
</mask>
<g mask="url(#mask1_105_992)">
<path d="M1530 2H1921V332.421H1755L1680 395.454H405.5L293.5 489H0V146.936H73L145.5 89.122H1423L1530 2Z" fill="#17191A" stroke="url(#paint4_linear_105_992)" stroke-width="3" stroke-linejoin="round"/>
</g>
</g>
<defs>
<filter id="filter0_f_105_992" x="-19.9" y="19.1" width="1960.8" height="526.8" filterUnits="userSpaceOnUse" color-interpolation-filters="sRGB">
<feFlood flood-opacity="0" result="BackgroundImageFix"/>
<feBlend mode="normal" in="SourceGraphic" in2="BackgroundImageFix" result="shape"/>
<feGaussianBlur stdDeviation="6.45" result="effect1_foregroundBlur_105_992"/>
</filter>
<filter id="filter1_bdi_105_992" x="-90.9611" y="-51.9611" width="2102.92" height="668.922" filterUnits="userSpaceOnUse" color-interpolation-filters="sRGB">
<feFlood flood-opacity="0" result="BackgroundImageFix"/>
<feGaussianBlur in="BackgroundImageFix" stdDeviation="41.9806"/>
<feComposite in2="SourceAlpha" operator="in" result="effect1_backgroundBlur_105_992"/>
<feColorMatrix in="SourceAlpha" type="matrix" values="0 0 0 0 0 0 0 0 0 0 0 0 0 0 0 0 0 0 127 0" result="hardAlpha"/>
<feOffset dy="4.79778"/>
<feGaussianBlur stdDeviation="6"/>
<feComposite in2="hardAlpha" operator="out"/>
<feColorMatrix type="matrix" values="0 0 0 0 0 0 0 0 0 0 0 0 0 0 0 0 0 0 0.25 0"/>
<feBlend mode="normal" in2="effect1_backgroundBlur_105_992" result="effect2_dropShadow_105_992"/>
<feBlend mode="normal" in="SourceGraphic" in2="effect2_dropShadow_105_992" result="shape"/>
<feColorMatrix in="SourceAlpha" type="matrix" values="0 0 0 0 0 0 0 0 0 0 0 0 0 0 0 0 0 0 127 0" result="hardAlpha"/>
<feOffset dy="1"/>
<feGaussianBlur stdDeviation="2.39889"/>
<feComposite in2="hardAlpha" operator="arithmetic" k2="-1" k3="1"/>
<feColorMatrix type="matrix" values="0 0 0 0 1 0 0 0 0 1 0 0 0 0 1 0 0 0 0.02 0"/>
<feBlend mode="normal" in2="shape" result="effect3_innerShadow_105_992"/>
</filter>
<filter id="filter2_bdi_105_992" x="-84.9611" y="-54.9611" width="2090.92" height="656.922" filterUnits="userSpaceOnUse" color-interpolation-filters="sRGB">
<feFlood flood-opacity="0" result="BackgroundImageFix"/>
<feGaussianBlur in="BackgroundImageFix" stdDeviation="41.9806"/>
<feComposite in2="SourceAlpha" operator="in" result="effect1_backgroundBlur_105_992"/>
<feColorMatrix in="SourceAlpha" type="matrix" values="0 0 0 0 0 0 0 0 0 0 0 0 0 0 0 0 0 0 127 0" result="hardAlpha"/>
<feOffset dy="4.79778"/>
<feGaussianBlur stdDeviation="6"/>
<feComposite in2="hardAlpha" operator="out"/>
<feColorMatrix type="matrix" values="0 0 0 0 0 0 0 0 0 0 0 0 0 0 0 0 0 0 0.25 0"/>
<feBlend mode="normal" in2="effect1_backgroundBlur_105_992" result="effect2_dropShadow_105_992"/>
<feBlend mode="normal" in="SourceGraphic" in2="effect2_dropShadow_105_992" result="shape"/>
<feColorMatrix in="SourceAlpha" type="matrix" values="0 0 0 0 0 0 0 0 0 0 0 0 0 0 0 0 0 0 127 0" result="hardAlpha"/>
<feOffset dy="1"/>
<feGaussianBlur stdDeviation="2.39889"/>
<feComposite in2="hardAlpha" operator="arithmetic" k2="-1" k3="1"/>
<feColorMatrix type="matrix" values="0 0 0 0 1 0 0 0 0 1 0 0 0 0 1 0 0 0 0.02 0"/>
<feBlend mode="normal" in2="shape" result="effect3_innerShadow_105_992"/>
</filter>
<linearGradient id="paint0_linear_105_992" x1="1512.57" y1="-653.328" x2="-125.605" y2="313.085" gradientUnits="userSpaceOnUse">
<stop stop-color="#86FDD2"/>
<stop offset="0.333" stop-color="#F4E987"/>
<stop offset="0.666" stop-color="#F86675"/>
<stop offset="1" stop-color="#AD69F0"/>
</linearGradient>
<linearGradient id="paint1_linear_105_992" x1="1512.57" y1="-653.328" x2="-125.605" y2="313.085" gradientUnits="userSpaceOnUse">
<stop stop-color="#86FDD2"/>
<stop offset="0.333" stop-color="#F4E987"/>
<stop offset="0.666" stop-color="#F86675"/>
<stop offset="1" stop-color="#AD69F0"/>
</linearGradient>
<linearGradient id="paint2_linear_105_992" x1="960.5" y1="30" x2="960.5" y2="517" gradientUnits="userSpaceOnUse">
<stop stop-color="white" stop-opacity="0.32"/>
<stop offset="0.11" stop-color="white" stop-opacity="0.24"/>
<stop offset="1" stop-color="white" stop-opacity="0.08"/>
</linearGradient>
<linearGradient id="paint3_linear_105_992" x1="960.5" y1="2" x2="960.5" y2="489" gradientUnits="userSpaceOnUse">
<stop stop-color="white" stop-opacity="0.32"/>
<stop offset="0.11" stop-color="white" stop-opacity="0.24"/>
<stop offset="1" stop-color="white" stop-opacity="0.08"/>
</linearGradient>
<linearGradient id="paint4_linear_105_992" x1="960.5" y1="2" x2="960.5" y2="489" gradientUnits="userSpaceOnUse">
<stop stop-color="white" stop-opacity="0.32"/>
<stop offset="0.11" stop-color="white" stop-opacity="0.24"/>
<stop offset="1" stop-color="white" stop-opacity="0.08"/>
</linearGradient>
</defs>
</svg>
