<svg width="747" height="175" viewBox="0 0 747 175" fill="none" xmlns="http://www.w3.org/2000/svg">
<path d="M157.413 129.264C154.46 121.302 146.775 116.005 138.171 116.005H123.191C137.422 116.005 147.32 102.051 142.433 88.8756L130.986 58.0049L114.394 13.2639C111.442 5.29674 103.756 0 95.1522 0H66.6071L78.2821 31.4772C84.1867 47.4065 99.5633 58 116.766 58H57.3434C48.7397 58 41.0538 63.2967 38.1016 71.259L0 174H28.5452C37.1489 174 44.8347 168.703 47.787 160.741L54.3167 143.129C59.2041 129.953 49.3053 116 35.0749 116H109.621L126.213 160.741C129.165 168.703 136.851 174 145.455 174H174L157.408 129.259L157.413 129.264Z" fill="white"/>
<path d="M246.007 127.684L277.343 42.0088H299.462L330.798 127.684H307.452L301.55 111.28H272.793L266.891 127.684H246H246.007ZM279.063 94.3939H295.287L287.175 68.9316L279.063 94.3939Z" fill="white"/>
<path d="M336.059 127.683V62.8147H353.511V71.6282C354.002 70.4843 354.761 69.3259 355.786 68.1388C356.812 66.9588 358.019 65.8365 359.413 64.7716C360.807 63.714 362.382 62.8578 364.144 62.2031C365.907 61.5556 367.807 61.2246 369.858 61.2246C371.252 61.2246 372.357 61.3037 373.174 61.4692C373.99 61.6347 374.727 61.793 375.384 61.9585V78.233C374.972 77.9884 374.033 77.7006 372.56 77.3769C371.086 77.0531 369.367 76.8876 367.395 76.8876C365.184 76.8876 363.299 77.233 361.739 77.9309C360.186 78.6216 358.914 79.5425 357.932 80.6865C356.949 81.8304 356.213 83.1974 355.721 84.7875C355.23 86.3775 354.985 88.0755 354.985 89.867V127.69H336.059V127.683Z" fill="white"/>
<path d="M411.657 128.417C407.561 128.417 404.036 128.028 401.088 127.251C398.141 126.474 395.721 125.193 393.836 123.395C391.95 121.603 390.556 119.258 389.66 116.358C388.758 113.466 388.31 109.89 388.31 105.645V78.2259H380.32V62.8076H388.31V48.123H407.236V62.8076H422.102V78.2259H407.236V102.58C407.236 104.379 407.358 105.926 407.604 107.228C407.85 108.537 408.319 109.595 409.02 110.408C409.713 111.228 410.616 111.818 411.722 112.185C412.827 112.552 414.243 112.732 415.962 112.732C417.19 112.732 418.418 112.71 419.646 112.674C420.874 112.631 422.102 112.531 423.33 112.365V127.783C421.77 127.949 420.137 128.093 418.418 128.215C416.699 128.337 414.445 128.395 411.657 128.395V128.417Z" fill="white"/>
<path d="M459.055 129.274C454.302 129.274 449.86 128.598 445.72 127.252C441.581 125.907 437.998 123.849 434.964 121.072C431.931 118.302 429.561 114.813 427.835 110.604C426.115 106.402 425.256 101.488 425.256 95.8544V93.4081C425.256 88.0192 426.094 83.3283 427.777 79.3352C429.453 75.3349 431.75 71.9893 434.661 69.2985C437.565 66.6076 441.011 64.5859 444.984 63.2405C448.957 61.8951 453.24 61.2188 457.827 61.2188C468.641 61.2188 476.768 63.9528 482.222 69.4208C487.668 74.8888 490.392 82.8822 490.392 93.4081V100.142H444.68C444.76 102.675 445.215 104.812 446.031 106.567C446.847 108.323 447.916 109.769 449.224 110.913C450.531 112.057 452.048 112.892 453.775 113.424C455.494 113.956 457.257 114.215 459.055 114.215C462.739 114.215 465.607 113.661 467.659 112.561C469.703 111.46 471.054 109.97 471.711 108.093H489.163C488.506 111.604 487.358 114.683 485.725 117.338C484.085 119.993 481.998 122.216 479.455 124.007C476.912 125.806 473.929 127.13 470.483 127.986C467.045 128.842 463.231 129.274 459.055 129.274ZM444.803 87.7818H471.841C471.841 85.5011 471.494 83.6232 470.794 82.1483C470.093 80.6806 469.132 79.5007 467.904 78.6013C466.676 77.702 465.239 77.0688 463.606 76.7019C461.966 76.335 460.247 76.1479 458.449 76.1479C456.65 76.1479 455.068 76.3565 453.471 76.7594C451.875 77.1695 450.437 77.8387 449.173 78.7812C447.902 79.7165 446.876 80.9252 446.103 82.3929C445.323 83.8607 444.89 85.6594 444.81 87.7818H444.803Z" fill="white"/>
<path d="M520.27 128.416C516.34 128.416 512.938 128.093 510.07 127.438C507.202 126.783 504.847 125.582 503.005 123.826C501.163 122.071 499.791 119.667 498.888 116.603C497.985 113.545 497.537 109.609 497.537 104.789V42H516.463V101.976C516.463 104.019 516.586 105.731 516.831 107.12C517.077 108.508 517.511 109.609 518.125 110.422C518.739 111.242 519.62 111.832 520.768 112.199C521.917 112.566 523.347 112.746 525.066 112.746C526.049 112.746 526.865 112.725 527.522 112.689C528.18 112.645 528.83 112.588 529.487 112.502V128.049C528.909 128.129 528.274 128.193 527.58 128.236C526.887 128.272 526.143 128.316 525.37 128.359C524.59 128.402 523.773 128.424 522.914 128.424H520.27V128.416Z" fill="white"/>
<path d="M556.668 128.416C552.739 128.416 549.336 128.093 546.469 127.438C543.601 126.783 541.246 125.582 539.404 123.826C537.562 122.071 536.189 119.667 535.286 116.603C534.383 113.545 533.936 109.609 533.936 104.789V42H552.862V101.976C552.862 104.019 552.984 105.731 553.23 107.12C553.476 108.508 553.909 109.609 554.523 110.422C555.137 111.242 556.018 111.832 557.167 112.199C558.315 112.566 559.746 112.746 561.465 112.746C562.447 112.746 563.264 112.725 563.921 112.689C564.578 112.645 565.228 112.588 565.886 112.502V128.049C565.308 128.129 564.672 128.193 563.979 128.236C563.285 128.272 562.541 128.316 561.768 128.359C560.988 128.402 560.172 128.424 559.312 128.424H556.668V128.416Z" fill="white"/>
<path d="M601.046 129.274C596.292 129.274 591.85 128.598 587.711 127.252C583.572 125.907 579.989 123.849 576.955 121.072C573.921 118.302 571.551 114.813 569.825 110.604C568.106 106.402 567.246 101.488 567.246 95.8544V93.4081C567.246 88.0192 568.084 83.3283 569.767 79.3352C571.443 75.3349 573.74 71.9893 576.651 69.2985C579.555 66.6076 583.001 64.5859 586.974 63.2405C590.947 61.8951 595.231 61.2188 599.818 61.2188C610.631 61.2188 618.758 63.9528 624.212 69.4208C629.658 74.8888 632.382 82.8822 632.382 93.4081V100.142H586.671C586.75 102.675 587.205 104.812 588.021 106.567C588.838 108.323 589.907 109.769 591.214 110.913C592.522 112.057 594.039 112.892 595.765 113.424C597.484 113.956 599.247 114.215 601.046 114.215C604.73 114.215 607.597 113.661 609.649 112.561C611.693 111.46 613.044 109.97 613.701 108.093H631.154C630.496 111.604 629.348 114.683 627.715 117.338C626.076 119.993 623.988 122.216 621.445 124.007C618.902 125.806 615.919 127.13 612.473 127.986C609.035 128.842 605.221 129.274 601.046 129.274ZM586.793 87.7818H613.831C613.831 85.5011 613.485 83.6232 612.784 82.1483C612.083 80.6806 611.123 79.5007 609.895 78.6013C608.667 77.702 607.229 77.0688 605.596 76.7019C603.957 76.335 602.237 76.1479 600.439 76.1479C598.64 76.1479 597.058 76.3565 595.462 76.7594C593.865 77.1695 592.428 77.8387 591.164 78.7812C589.892 79.7165 588.867 80.9252 588.094 82.3929C587.313 83.8607 586.88 85.6594 586.801 87.7818H586.793Z" fill="white"/>
<path d="M670.891 129.273C666.058 129.273 661.608 128.582 657.556 127.193C653.503 125.805 650 123.726 647.045 120.948C644.098 118.178 641.801 114.703 640.161 110.545C638.521 106.386 637.705 101.487 637.705 95.8602V93.414C637.705 88.2697 638.586 83.7011 640.349 79.708C642.111 75.7149 644.488 72.3477 647.479 69.6137C650.469 66.8797 653.994 64.8004 658.047 63.3686C662.099 61.9441 666.383 61.2246 670.891 61.2246C675.803 61.2246 680.122 61.8793 683.857 63.1816C687.584 64.491 690.719 66.2609 693.255 68.5057C695.79 70.7505 697.763 73.3838 699.149 76.3984C700.544 79.4202 701.36 82.6434 701.606 86.0681H682.188C681.531 83.1327 680.325 80.8663 678.562 79.2763C676.799 77.6862 674.242 76.8876 670.883 76.8876C668.918 76.8876 667.091 77.233 665.415 77.9309C663.732 78.6216 662.28 79.6432 661.052 80.9886C659.824 82.3341 658.856 84.0464 658.162 86.1329C657.469 88.2122 657.115 90.644 657.115 93.414V95.8602C657.115 98.882 657.44 101.494 658.097 103.695C658.748 105.897 659.672 107.732 660.864 109.207C662.049 110.674 663.508 111.761 665.227 112.451C666.946 113.142 668.832 113.495 670.883 113.495C673.751 113.495 676.185 112.739 678.194 111.228C680.202 109.717 681.531 107.458 682.188 104.436H701.606C701.36 108.271 700.457 111.717 698.904 114.782C697.351 117.84 695.234 120.452 692.576 122.618C689.91 124.783 686.761 126.431 683.113 127.575C679.465 128.719 675.391 129.287 670.883 129.287L670.891 129.273Z" fill="white"/>
<path d="M735.328 128.417C731.233 128.417 727.707 128.028 724.76 127.251C721.813 126.474 719.393 125.193 717.508 123.395C715.622 121.603 714.228 119.258 713.332 116.358C712.429 113.466 711.982 109.89 711.982 105.645V78.2259H703.992V62.8076H711.982V48.123H730.908V62.8076H745.774V78.2259H730.908V102.58C730.908 104.379 731.03 105.926 731.276 107.228C731.522 108.537 731.991 109.595 732.692 110.408C733.385 111.228 734.288 111.818 735.393 112.185C736.499 112.552 737.915 112.732 739.634 112.732C740.862 112.732 742.09 112.71 743.318 112.674C744.546 112.631 745.774 112.531 747.002 112.365V127.783C745.442 127.949 743.809 128.093 742.09 128.215C740.37 128.337 738.117 128.395 735.328 128.395V128.417Z" fill="white"/>
<path d="M428.3 170.21C427.558 170.21 426.865 170.07 426.221 169.79C425.591 169.51 425.038 169.104 424.562 168.572C424.1 168.026 423.729 167.361 423.449 166.577C423.183 165.793 423.05 164.904 423.05 163.91V163.49C423.05 162.23 423.141 161.11 423.323 160.13C423.505 159.136 423.813 158.296 424.247 157.61C424.695 156.91 425.276 156.364 425.99 155.972C426.718 155.58 427.628 155.356 428.72 155.3C429.602 155.258 430.372 155.223 431.03 155.195C431.688 155.153 432.248 155.013 432.71 154.775V156.56C432.486 156.686 432.073 156.784 431.471 156.854C430.883 156.924 430.071 156.973 429.035 157.001C428.363 157.015 427.768 157.099 427.25 157.253C426.746 157.407 426.312 157.652 425.948 157.988C425.598 158.324 425.318 158.765 425.108 159.311C424.912 159.843 424.786 160.501 424.73 161.285C425.066 160.543 425.584 159.955 426.284 159.521C426.984 159.087 427.796 158.87 428.72 158.87C429.434 158.87 430.085 158.996 430.673 159.248C431.261 159.486 431.765 159.829 432.185 160.277C432.619 160.725 432.955 161.278 433.193 161.936C433.431 162.58 433.55 163.308 433.55 164.12V164.54C433.55 165.408 433.417 166.192 433.151 166.892C432.885 167.578 432.521 168.173 432.059 168.677C431.597 169.167 431.044 169.545 430.4 169.811C429.756 170.077 429.056 170.21 428.3 170.21ZM428.3 168.53C429.28 168.53 430.085 168.194 430.715 167.522C431.345 166.836 431.66 165.842 431.66 164.54V164.12C431.66 163.574 431.576 163.084 431.408 162.65C431.24 162.216 431.009 161.845 430.715 161.537C430.421 161.215 430.064 160.97 429.644 160.802C429.238 160.634 428.79 160.55 428.3 160.55C427.81 160.55 427.355 160.634 426.935 160.802C426.529 160.97 426.179 161.215 425.885 161.537C425.591 161.845 425.36 162.216 425.192 162.65C425.024 163.084 424.94 163.574 424.94 164.12V164.54C424.94 165.156 425.024 165.716 425.192 166.22C425.374 166.71 425.619 167.13 425.927 167.48C426.235 167.816 426.592 168.075 426.998 168.257C427.404 168.439 427.838 168.53 428.3 168.53ZM436.169 158.87H438.017V167.27L443.771 158.87H445.619V170H443.771V161.6L438.017 170H436.169V158.87ZM452.767 170.21C451.367 170.21 450.268 169.916 449.47 169.328C448.672 168.74 448.231 167.914 448.147 166.85H449.995C450.093 167.396 450.38 167.816 450.856 168.11C451.346 168.39 451.983 168.53 452.767 168.53C453.733 168.53 454.433 168.369 454.867 168.047C455.315 167.711 455.539 167.312 455.539 166.85C455.539 166.304 455.357 165.877 454.993 165.569C454.629 165.247 453.999 165.086 453.103 165.086H451.192V163.574H452.977C453.747 163.574 454.293 163.427 454.615 163.133C454.951 162.839 455.119 162.426 455.119 161.894C455.119 161.474 454.923 161.11 454.531 160.802C454.139 160.494 453.551 160.34 452.767 160.34C451.913 160.34 451.29 160.48 450.898 160.76C450.52 161.026 450.289 161.411 450.205 161.915H448.357C448.399 161.453 448.525 161.026 448.735 160.634C448.959 160.228 449.26 159.878 449.638 159.584C450.016 159.29 450.464 159.066 450.982 158.912C451.514 158.744 452.109 158.66 452.767 158.66C453.481 158.66 454.097 158.744 454.615 158.912C455.147 159.066 455.588 159.29 455.938 159.584C456.288 159.864 456.547 160.2 456.715 160.592C456.883 160.984 456.967 161.418 456.967 161.894C456.967 162.426 456.834 162.895 456.568 163.301C456.302 163.693 455.875 164.001 455.287 164.225C456.071 164.435 456.617 164.771 456.925 165.233C457.233 165.695 457.387 166.234 457.387 166.85C457.387 167.312 457.289 167.746 457.093 168.152C456.897 168.558 456.603 168.915 456.211 169.223C455.833 169.517 455.35 169.755 454.762 169.937C454.188 170.119 453.523 170.21 452.767 170.21ZM460.02 158.87H461.868V163.511H467.622V158.87H469.47V170H467.622V165.149H461.868V170H460.02V158.87ZM477.457 170.21C476.743 170.21 476.064 170.098 475.42 169.874C474.776 169.65 474.209 169.307 473.719 168.845C473.229 168.369 472.837 167.774 472.543 167.06C472.249 166.346 472.102 165.506 472.102 164.54V164.12C472.102 163.196 472.242 162.398 472.522 161.726C472.802 161.04 473.173 160.473 473.635 160.025C474.111 159.563 474.657 159.22 475.273 158.996C475.903 158.772 476.561 158.66 477.247 158.66C478.885 158.66 480.152 159.108 481.048 160.004C481.944 160.9 482.392 162.167 482.392 163.805V164.981H473.95C473.95 165.639 474.055 166.192 474.265 166.64C474.475 167.088 474.748 167.452 475.084 167.732C475.42 168.012 475.791 168.215 476.197 168.341C476.617 168.467 477.037 168.53 477.457 168.53C478.297 168.53 478.941 168.39 479.389 168.11C479.851 167.83 480.18 167.445 480.376 166.955H482.182C482.07 167.487 481.867 167.956 481.573 168.362C481.293 168.768 480.943 169.111 480.523 169.391C480.117 169.657 479.648 169.86 479.116 170C478.598 170.14 478.045 170.21 477.457 170.21ZM477.352 160.34C476.918 160.34 476.498 160.403 476.092 160.529C475.686 160.641 475.322 160.83 475 161.096C474.692 161.348 474.44 161.67 474.244 162.062C474.048 162.454 473.95 162.923 473.95 163.469H480.649C480.635 162.895 480.537 162.412 480.355 162.02C480.187 161.614 479.956 161.292 479.662 161.054C479.368 160.802 479.018 160.62 478.612 160.508C478.22 160.396 477.8 160.34 477.352 160.34ZM489.324 170.21C488.61 170.21 487.945 170.098 487.329 169.874C486.713 169.636 486.181 169.286 485.733 168.824C485.285 168.348 484.928 167.753 484.662 167.039C484.41 166.325 484.284 165.492 484.284 164.54V164.12C484.284 163.224 484.424 162.433 484.704 161.747C484.984 161.061 485.355 160.494 485.817 160.046C486.279 159.584 486.811 159.241 487.413 159.017C488.029 158.779 488.666 158.66 489.324 158.66C489.982 158.66 490.57 158.751 491.088 158.933C491.62 159.115 492.075 159.367 492.453 159.689C492.845 160.011 493.16 160.389 493.398 160.823C493.65 161.257 493.832 161.726 493.944 162.23H492.054C491.942 161.964 491.809 161.719 491.655 161.495C491.515 161.257 491.333 161.054 491.109 160.886C490.899 160.718 490.647 160.585 490.353 160.487C490.059 160.389 489.716 160.34 489.324 160.34C488.918 160.34 488.526 160.417 488.148 160.571C487.77 160.711 487.434 160.935 487.14 161.243C486.846 161.537 486.608 161.922 486.426 162.398C486.258 162.874 486.174 163.448 486.174 164.12V164.54C486.174 165.254 486.258 165.87 486.426 166.388C486.608 166.892 486.846 167.305 487.14 167.627C487.434 167.935 487.77 168.166 488.148 168.32C488.526 168.46 488.918 168.53 489.324 168.53C490.01 168.53 490.584 168.362 491.046 168.026C491.522 167.69 491.858 167.228 492.054 166.64H493.944C493.678 167.746 493.132 168.621 492.306 169.265C491.48 169.895 490.486 170.21 489.324 170.21ZM495.622 163.259H501.922V164.981H495.622V163.259ZM502.544 168.362H503.909C504.063 168.152 504.203 167.83 504.329 167.396C504.455 166.962 504.567 166.451 504.665 165.863C504.763 165.275 504.833 164.638 504.875 163.952C504.931 163.252 504.959 162.538 504.959 161.81V158.87H512.729V168.362H514.304V172.625H512.54V170H504.308V172.625H502.544V168.362ZM510.881 168.362V160.508H506.765V162.23C506.765 162.818 506.744 163.406 506.702 163.994C506.66 164.568 506.597 165.121 506.513 165.653C506.429 166.171 506.324 166.668 506.198 167.144C506.086 167.606 505.953 168.012 505.799 168.362H510.881ZM516.519 158.87H518.241V160.97C518.619 160.228 519.144 159.661 519.816 159.269C520.502 158.863 521.293 158.66 522.189 158.66C523.589 158.66 524.709 159.122 525.549 160.046C526.389 160.956 526.809 162.314 526.809 164.12V164.54C526.809 165.492 526.697 166.325 526.473 167.039C526.249 167.739 525.934 168.327 525.528 168.803C525.122 169.265 524.632 169.615 524.058 169.853C523.498 170.091 522.875 170.21 522.189 170.21C521.237 170.21 520.439 170 519.795 169.58C519.165 169.16 518.689 168.635 518.367 168.005V174.2H516.519V158.87ZM521.769 168.572C522.217 168.572 522.637 168.488 523.029 168.32C523.421 168.138 523.757 167.879 524.037 167.543C524.331 167.207 524.555 166.787 524.709 166.283C524.877 165.779 524.961 165.198 524.961 164.54V164.12C524.961 163.518 524.877 162.979 524.709 162.503C524.555 162.027 524.331 161.628 524.037 161.306C523.757 160.97 523.421 160.718 523.029 160.55C522.637 160.382 522.217 160.298 521.769 160.298C521.265 160.298 520.803 160.382 520.383 160.55C519.963 160.704 519.606 160.928 519.312 161.222C519.018 161.502 518.787 161.838 518.619 162.23C518.451 162.622 518.367 163.042 518.367 163.49V165.17C518.367 165.674 518.451 166.136 518.619 166.556C518.787 166.976 519.018 167.333 519.312 167.627C519.606 167.921 519.963 168.152 520.383 168.32C520.803 168.488 521.265 168.572 521.769 168.572ZM532.61 170.21C531.994 170.21 531.448 170.126 530.972 169.958C530.51 169.776 530.118 169.531 529.796 169.223C529.474 168.915 529.229 168.551 529.061 168.131C528.893 167.711 528.809 167.249 528.809 166.745C528.809 165.639 529.131 164.841 529.775 164.351C530.433 163.861 531.371 163.616 532.589 163.616H536.201V162.86C536.201 161.908 535.984 161.25 535.55 160.886C535.13 160.522 534.493 160.34 533.639 160.34C532.841 160.34 532.26 160.494 531.896 160.802C531.532 161.096 531.329 161.432 531.287 161.81H529.439C529.467 161.362 529.586 160.949 529.796 160.571C530.02 160.179 530.314 159.843 530.678 159.563C531.056 159.283 531.504 159.066 532.022 158.912C532.54 158.744 533.114 158.66 533.744 158.66C535.06 158.66 536.103 158.975 536.873 159.605C537.657 160.221 538.049 161.236 538.049 162.65V167.165C538.049 167.753 538.049 168.271 538.049 168.719C538.063 169.153 538.098 169.58 538.154 170H536.537C536.495 169.678 536.467 169.377 536.453 169.097C536.439 168.803 536.432 168.474 536.432 168.11C536.138 168.698 535.662 169.195 535.004 169.601C534.346 170.007 533.548 170.21 532.61 170.21ZM533.009 168.53C533.443 168.53 533.849 168.474 534.227 168.362C534.619 168.236 534.962 168.061 535.256 167.837C535.55 167.599 535.781 167.312 535.949 166.976C536.117 166.64 536.201 166.248 536.201 165.8V165.044H532.904C532.218 165.044 531.679 165.184 531.287 165.464C530.895 165.73 530.699 166.157 530.699 166.745C530.699 167.263 530.881 167.69 531.245 168.026C531.623 168.362 532.211 168.53 533.009 168.53ZM541.313 158.87H543.161V167.27L548.915 158.87H550.763V170H548.915V161.6L543.161 170H541.313V158.87ZM546.038 157.505C544.946 157.505 544.148 157.274 543.644 156.812C543.14 156.336 542.888 155.657 542.888 154.775H544.694C544.694 155.727 545.142 156.203 546.038 156.203C546.962 156.203 547.424 155.727 547.424 154.775H549.188C549.188 155.657 548.936 156.336 548.432 156.812C547.928 157.274 547.13 157.505 546.038 157.505ZM554.13 158.87H558.96C560.332 158.87 561.34 159.157 561.984 159.731C562.628 160.291 562.95 161.019 562.95 161.915C562.95 162.153 562.908 162.398 562.824 162.65C562.74 162.888 562.621 163.112 562.467 163.322C562.327 163.532 562.152 163.714 561.942 163.868C561.746 164.022 561.522 164.141 561.27 164.225C561.956 164.393 562.474 164.715 562.824 165.191C563.188 165.653 563.37 166.199 563.37 166.829C563.37 167.795 563.048 168.565 562.404 169.139C561.76 169.713 560.752 170 559.38 170H554.13V158.87ZM559.38 168.362C560.164 168.362 560.717 168.222 561.039 167.942C561.361 167.662 561.522 167.263 561.522 166.745C561.522 166.213 561.361 165.807 561.039 165.527C560.717 165.233 560.164 165.086 559.38 165.086H555.978V168.362H559.38ZM558.96 163.574C559.758 163.574 560.311 163.434 560.619 163.154C560.941 162.874 561.102 162.489 561.102 161.999C561.102 161.537 560.941 161.173 560.619 160.907C560.311 160.641 559.758 160.508 558.96 160.508H555.978V163.574H558.96ZM570.624 170.21C569.91 170.21 569.231 170.098 568.587 169.874C567.943 169.65 567.376 169.307 566.886 168.845C566.396 168.369 566.004 167.774 565.71 167.06C565.416 166.346 565.269 165.506 565.269 164.54V164.12C565.269 163.196 565.409 162.398 565.689 161.726C565.969 161.04 566.34 160.473 566.802 160.025C567.278 159.563 567.824 159.22 568.44 158.996C569.07 158.772 569.728 158.66 570.414 158.66C572.052 158.66 573.319 159.108 574.215 160.004C575.111 160.9 575.559 162.167 575.559 163.805V164.981H567.117C567.117 165.639 567.222 166.192 567.432 166.64C567.642 167.088 567.915 167.452 568.251 167.732C568.587 168.012 568.958 168.215 569.364 168.341C569.784 168.467 570.204 168.53 570.624 168.53C571.464 168.53 572.108 168.39 572.556 168.11C573.018 167.83 573.347 167.445 573.543 166.955H575.349C575.237 167.487 575.034 167.956 574.74 168.362C574.46 168.768 574.11 169.111 573.69 169.391C573.284 169.657 572.815 169.86 572.283 170C571.765 170.14 571.212 170.21 570.624 170.21ZM570.519 160.34C570.085 160.34 569.665 160.403 569.259 160.529C568.853 160.641 568.489 160.83 568.167 161.096C567.859 161.348 567.607 161.67 567.411 162.062C567.215 162.454 567.117 162.923 567.117 163.469H573.816C573.802 162.895 573.704 162.412 573.522 162.02C573.354 161.614 573.123 161.292 572.829 161.054C572.535 160.802 572.185 160.62 571.779 160.508C571.387 160.396 570.967 160.34 570.519 160.34ZM578.186 158.87H579.908V160.97C580.286 160.228 580.811 159.661 581.483 159.269C582.169 158.863 582.96 158.66 583.856 158.66C585.256 158.66 586.376 159.122 587.216 160.046C588.056 160.956 588.476 162.314 588.476 164.12V164.54C588.476 165.492 588.364 166.325 588.14 167.039C587.916 167.739 587.601 168.327 587.195 168.803C586.789 169.265 586.299 169.615 585.725 169.853C585.165 170.091 584.542 170.21 583.856 170.21C582.904 170.21 582.106 170 581.462 169.58C580.832 169.16 580.356 168.635 580.034 168.005V174.2H578.186V158.87ZM583.436 168.572C583.884 168.572 584.304 168.488 584.696 168.32C585.088 168.138 585.424 167.879 585.704 167.543C585.998 167.207 586.222 166.787 586.376 166.283C586.544 165.779 586.628 165.198 586.628 164.54V164.12C586.628 163.518 586.544 162.979 586.376 162.503C586.222 162.027 585.998 161.628 585.704 161.306C585.424 160.97 585.088 160.718 584.696 160.55C584.304 160.382 583.884 160.298 583.436 160.298C582.932 160.298 582.47 160.382 582.05 160.55C581.63 160.704 581.273 160.928 580.979 161.222C580.685 161.502 580.454 161.838 580.286 162.23C580.118 162.622 580.034 163.042 580.034 163.49V165.17C580.034 165.674 580.118 166.136 580.286 166.556C580.454 166.976 580.685 167.333 580.979 167.627C581.273 167.921 581.63 168.152 582.05 168.32C582.47 168.488 582.932 168.572 583.436 168.572ZM596.356 158.87H601.186C602.558 158.87 603.566 159.157 604.21 159.731C604.854 160.291 605.176 161.019 605.176 161.915C605.176 162.153 605.134 162.398 605.05 162.65C604.966 162.888 604.847 163.112 604.693 163.322C604.553 163.532 604.378 163.714 604.168 163.868C603.972 164.022 603.748 164.141 603.496 164.225C604.182 164.393 604.7 164.715 605.05 165.191C605.414 165.653 605.596 166.199 605.596 166.829C605.596 167.795 605.274 168.565 604.63 169.139C603.986 169.713 602.978 170 601.606 170H596.356V158.87ZM601.606 168.362C602.39 168.362 602.943 168.222 603.265 167.942C603.587 167.662 603.748 167.263 603.748 166.745C603.748 166.213 603.587 165.807 603.265 165.527C602.943 165.233 602.39 165.086 601.606 165.086H598.204V168.362H601.606ZM601.186 163.574C601.984 163.574 602.537 163.434 602.845 163.154C603.167 162.874 603.328 162.489 603.328 161.999C603.328 161.537 603.167 161.173 602.845 160.907C602.537 160.641 601.984 160.508 601.186 160.508H598.204V163.574H601.186ZM611.401 170.21C610.785 170.21 610.239 170.126 609.763 169.958C609.301 169.776 608.909 169.531 608.587 169.223C608.265 168.915 608.02 168.551 607.852 168.131C607.684 167.711 607.6 167.249 607.6 166.745C607.6 165.639 607.922 164.841 608.566 164.351C609.224 163.861 610.162 163.616 611.38 163.616H614.992V162.86C614.992 161.908 614.775 161.25 614.341 160.886C613.921 160.522 613.284 160.34 612.43 160.34C611.632 160.34 611.051 160.494 610.687 160.802C610.323 161.096 610.12 161.432 610.078 161.81H608.23C608.258 161.362 608.377 160.949 608.587 160.571C608.811 160.179 609.105 159.843 609.469 159.563C609.847 159.283 610.295 159.066 610.813 158.912C611.331 158.744 611.905 158.66 612.535 158.66C613.851 158.66 614.894 158.975 615.664 159.605C616.448 160.221 616.84 161.236 616.84 162.65V167.165C616.84 167.753 616.84 168.271 616.84 168.719C616.854 169.153 616.889 169.58 616.945 170H615.328C615.286 169.678 615.258 169.377 615.244 169.097C615.23 168.803 615.223 168.474 615.223 168.11C614.929 168.698 614.453 169.195 613.795 169.601C613.137 170.007 612.339 170.21 611.401 170.21ZM611.8 168.53C612.234 168.53 612.64 168.474 613.018 168.362C613.41 168.236 613.753 168.061 614.047 167.837C614.341 167.599 614.572 167.312 614.74 166.976C614.908 166.64 614.992 166.248 614.992 165.8V165.044H611.695C611.009 165.044 610.47 165.184 610.078 165.464C609.686 165.73 609.49 166.157 609.49 166.745C609.49 167.263 609.672 167.69 610.036 168.026C610.414 168.362 611.002 168.53 611.8 168.53ZM620.104 158.87H621.952V168.362H626.005V158.87H627.853V168.362H631.906V158.87H633.754V170H620.104V158.87ZM641.725 170.21C641.011 170.21 640.332 170.098 639.688 169.874C639.044 169.65 638.477 169.307 637.987 168.845C637.497 168.369 637.105 167.774 636.811 167.06C636.517 166.346 636.37 165.506 636.37 164.54V164.12C636.37 163.196 636.51 162.398 636.79 161.726C637.07 161.04 637.441 160.473 637.903 160.025C638.379 159.563 638.925 159.22 639.541 158.996C640.171 158.772 640.829 158.66 641.515 158.66C643.153 158.66 644.42 159.108 645.316 160.004C646.212 160.9 646.66 162.167 646.66 163.805V164.981H638.218C638.218 165.639 638.323 166.192 638.533 166.64C638.743 167.088 639.016 167.452 639.352 167.732C639.688 168.012 640.059 168.215 640.465 168.341C640.885 168.467 641.305 168.53 641.725 168.53C642.565 168.53 643.209 168.39 643.657 168.11C644.119 167.83 644.448 167.445 644.644 166.955H646.45C646.338 167.487 646.135 167.956 645.841 168.362C645.561 168.768 645.211 169.111 644.791 169.391C644.385 169.657 643.916 169.86 643.384 170C642.866 170.14 642.313 170.21 641.725 170.21ZM641.62 160.34C641.186 160.34 640.766 160.403 640.36 160.529C639.954 160.641 639.59 160.83 639.268 161.096C638.96 161.348 638.708 161.67 638.512 162.062C638.316 162.454 638.218 162.923 638.218 163.469H644.917C644.903 162.895 644.805 162.412 644.623 162.02C644.455 161.614 644.224 161.292 643.93 161.054C643.636 160.802 643.286 160.62 642.88 160.508C642.488 160.396 642.068 160.34 641.62 160.34ZM649.286 158.87H656.846V160.508H651.134V170H649.286V158.87ZM663.361 170.21C662.647 170.21 661.968 170.098 661.324 169.874C660.68 169.636 660.113 169.286 659.623 168.824C659.133 168.348 658.741 167.753 658.447 167.039C658.153 166.325 658.006 165.492 658.006 164.54V164.12C658.006 163.224 658.153 162.433 658.447 161.747C658.741 161.061 659.133 160.494 659.623 160.046C660.113 159.584 660.68 159.241 661.324 159.017C661.968 158.779 662.647 158.66 663.361 158.66C664.075 158.66 664.754 158.779 665.398 159.017C666.042 159.241 666.609 159.584 667.099 160.046C667.589 160.494 667.981 161.061 668.275 161.747C668.569 162.433 668.716 163.224 668.716 164.12V164.54C668.716 165.492 668.569 166.325 668.275 167.039C667.981 167.753 667.589 168.348 667.099 168.824C666.609 169.286 666.042 169.636 665.398 169.874C664.754 170.098 664.075 170.21 663.361 170.21ZM663.361 168.53C663.781 168.53 664.201 168.46 664.621 168.32C665.041 168.166 665.412 167.935 665.734 167.627C666.056 167.305 666.315 166.892 666.511 166.388C666.721 165.884 666.826 165.268 666.826 164.54V164.12C666.826 163.448 666.721 162.874 666.511 162.398C666.315 161.922 666.056 161.53 665.734 161.222C665.412 160.914 665.041 160.69 664.621 160.55C664.201 160.41 663.781 160.34 663.361 160.34C662.941 160.34 662.521 160.41 662.101 160.55C661.681 160.69 661.31 160.914 660.988 161.222C660.666 161.53 660.4 161.922 660.19 162.398C659.994 162.874 659.896 163.448 659.896 164.12V164.54C659.896 165.268 659.994 165.884 660.19 166.388C660.4 166.892 660.666 167.305 660.988 167.627C661.31 167.935 661.681 168.166 662.101 168.32C662.521 168.46 662.941 168.53 663.361 168.53ZM678.052 174.41C677.842 174.41 677.632 174.389 677.422 174.347V172.667C677.632 172.709 677.842 172.73 678.052 172.73C678.262 172.73 678.444 172.695 678.598 172.625C678.752 172.555 678.899 172.422 679.039 172.226C679.179 172.03 679.326 171.75 679.48 171.386C679.648 171.036 679.837 170.574 680.047 170L675.322 158.87H677.38L680.992 167.9L684.268 158.87H686.242L682.042 170C681.748 170.784 681.468 171.456 681.202 172.016C680.936 172.576 680.649 173.031 680.341 173.381C680.047 173.745 679.718 174.004 679.354 174.158C678.99 174.326 678.556 174.41 678.052 174.41ZM692.228 170.21C691.514 170.21 690.849 170.098 690.233 169.874C689.617 169.636 689.085 169.286 688.637 168.824C688.189 168.348 687.832 167.753 687.566 167.039C687.314 166.325 687.188 165.492 687.188 164.54V164.12C687.188 163.224 687.328 162.433 687.608 161.747C687.888 161.061 688.259 160.494 688.721 160.046C689.183 159.584 689.715 159.241 690.317 159.017C690.933 158.779 691.57 158.66 692.228 158.66C692.886 158.66 693.474 158.751 693.992 158.933C694.524 159.115 694.979 159.367 695.357 159.689C695.749 160.011 696.064 160.389 696.302 160.823C696.554 161.257 696.736 161.726 696.848 162.23H694.958C694.846 161.964 694.713 161.719 694.559 161.495C694.419 161.257 694.237 161.054 694.013 160.886C693.803 160.718 693.551 160.585 693.257 160.487C692.963 160.389 692.62 160.34 692.228 160.34C691.822 160.34 691.43 160.417 691.052 160.571C690.674 160.711 690.338 160.935 690.044 161.243C689.75 161.537 689.512 161.922 689.33 162.398C689.162 162.874 689.078 163.448 689.078 164.12V164.54C689.078 165.254 689.162 165.87 689.33 166.388C689.512 166.892 689.75 167.305 690.044 167.627C690.338 167.935 690.674 168.166 691.052 168.32C691.43 168.46 691.822 168.53 692.228 168.53C692.914 168.53 693.488 168.362 693.95 168.026C694.426 167.69 694.762 167.228 694.958 166.64H696.848C696.582 167.746 696.036 168.621 695.21 169.265C694.384 169.895 693.39 170.21 692.228 170.21ZM699.367 158.87H708.607V170H706.759V160.508H701.215V170H699.367V158.87ZM716.578 170.21C715.864 170.21 715.185 170.098 714.541 169.874C713.897 169.65 713.33 169.307 712.84 168.845C712.35 168.369 711.958 167.774 711.664 167.06C711.37 166.346 711.223 165.506 711.223 164.54V164.12C711.223 163.196 711.363 162.398 711.643 161.726C711.923 161.04 712.294 160.473 712.756 160.025C713.232 159.563 713.778 159.22 714.394 158.996C715.024 158.772 715.682 158.66 716.368 158.66C718.006 158.66 719.273 159.108 720.169 160.004C721.065 160.9 721.513 162.167 721.513 163.805V164.981H713.071C713.071 165.639 713.176 166.192 713.386 166.64C713.596 167.088 713.869 167.452 714.205 167.732C714.541 168.012 714.912 168.215 715.318 168.341C715.738 168.467 716.158 168.53 716.578 168.53C717.418 168.53 718.062 168.39 718.51 168.11C718.972 167.83 719.301 167.445 719.497 166.955H721.303C721.191 167.487 720.988 167.956 720.694 168.362C720.414 168.768 720.064 169.111 719.644 169.391C719.238 169.657 718.769 169.86 718.237 170C717.719 170.14 717.166 170.21 716.578 170.21ZM716.473 160.34C716.039 160.34 715.619 160.403 715.213 160.529C714.807 160.641 714.443 160.83 714.121 161.096C713.813 161.348 713.561 161.67 713.365 162.062C713.169 162.454 713.071 162.923 713.071 163.469H719.77C719.756 162.895 719.658 162.412 719.476 162.02C719.308 161.614 719.077 161.292 718.783 161.054C718.489 160.802 718.139 160.62 717.733 160.508C717.341 160.396 716.921 160.34 716.473 160.34ZM726.754 164.351L722.785 158.87H724.927L727.867 162.923L730.807 158.87H732.865L728.896 164.246L733.075 170H730.891L727.783 165.653L724.675 170H722.575L726.754 164.351ZM738.242 170.21C737.626 170.21 737.08 170.126 736.604 169.958C736.142 169.776 735.75 169.531 735.428 169.223C735.106 168.915 734.861 168.551 734.693 168.131C734.525 167.711 734.441 167.249 734.441 166.745C734.441 165.639 734.763 164.841 735.407 164.351C736.065 163.861 737.003 163.616 738.221 163.616H741.833V162.86C741.833 161.908 741.616 161.25 741.182 160.886C740.762 160.522 740.125 160.34 739.271 160.34C738.473 160.34 737.892 160.494 737.528 160.802C737.164 161.096 736.961 161.432 736.919 161.81H735.071C735.099 161.362 735.218 160.949 735.428 160.571C735.652 160.179 735.946 159.843 736.31 159.563C736.688 159.283 737.136 159.066 737.654 158.912C738.172 158.744 738.746 158.66 739.376 158.66C740.692 158.66 741.735 158.975 742.505 159.605C743.289 160.221 743.681 161.236 743.681 162.65V167.165C743.681 167.753 743.681 168.271 743.681 168.719C743.695 169.153 743.73 169.58 743.786 170H742.169C742.127 169.678 742.099 169.377 742.085 169.097C742.071 168.803 742.064 168.474 742.064 168.11C741.77 168.698 741.294 169.195 740.636 169.601C739.978 170.007 739.18 170.21 738.242 170.21ZM738.641 168.53C739.075 168.53 739.481 168.474 739.859 168.362C740.251 168.236 740.594 168.061 740.888 167.837C741.182 167.599 741.413 167.312 741.581 166.976C741.749 166.64 741.833 166.248 741.833 165.8V165.044H738.536C737.85 165.044 737.311 165.184 736.919 165.464C736.527 165.73 736.331 166.157 736.331 166.745C736.331 167.263 736.513 167.69 736.877 168.026C737.255 168.362 737.843 168.53 738.641 168.53Z" fill="white"/>
</svg>
