<svg width="22" height="22" viewBox="0 0 22 22" fill="none" xmlns="http://www.w3.org/2000/svg">
<path d="M18.4021 19.7243C18.4021 19.7243 16.9724 20.632 16.6103 20.9101C16.0311 21.3123 15.4236 21.4325 14.6931 21.2799C14.6228 21.2652 14.5479 21.2496 14.4786 21.2303C13.1064 20.8515 11.928 20.0433 11.0559 19.3815C8.67474 17.5565 6.7298 15.2655 5.28053 12.5741C4.0878 10.3336 3.39377 8.34747 3.08788 6.30678C2.89723 5.06054 2.9288 4.12719 3.17903 3.29282C3.34092 2.75977 3.64706 2.35375 4.11739 2.04986L6.0497 0.801371C6.32442 0.635888 6.59253 0.570771 6.83137 0.620666C7.1264 0.682302 7.32787 0.908502 7.44626 1.08828C7.44996 1.09389 7.45366 1.09951 7.45736 1.10513C7.68697 1.42927 7.90056 1.75975 8.12428 2.11172C8.23798 2.29052 8.35637 2.47029 8.47377 2.6547L9.48378 4.1884C9.87594 4.78391 9.77956 5.23859 9.1789 5.62668C9.01457 5.73286 8.85492 5.84001 8.69157 5.94155C8.21361 6.25838 8.58753 6.01678 8.10339 6.29355C8.09205 6.30088 8.0817 6.30356 8.07505 6.31186C7.58772 6.62673 7.58004 7.03211 7.60828 7.31418C7.61001 7.32907 7.61174 7.34397 7.61348 7.35887C7.77682 8.22634 8.08581 9.07579 8.60783 10.1199L8.61153 10.1256C9.56969 11.9731 10.6719 13.4872 11.9755 14.7431C12.1419 14.9039 12.318 15.0424 12.4856 15.1743C12.6365 15.2931 12.779 15.4052 12.8971 15.5171C12.9139 15.5303 12.9297 15.5481 12.9464 15.5613C13.0889 15.6734 13.2309 15.7419 13.3855 15.7741C13.7742 15.8553 14.0688 15.665 14.1652 15.6027L15.2759 14.8851C15.4686 14.7606 15.7618 14.6232 16.0568 14.6848C16.3472 14.7455 16.5477 14.9763 16.6594 15.1644C16.6631 15.17 16.6631 15.17 16.6668 15.1756L18.7053 18.2711C19.0873 18.8451 18.4021 19.7243 18.4021 19.7243Z" fill="white"/>
</svg>
