<svg width="314" height="45" viewBox="0 0 314 45" fill="none" xmlns="http://www.w3.org/2000/svg">
    <line y1="24.5" x2="132" y2="24.5" stroke="white"/>
    <line x1="182" y1="24.5" x2="314" y2="24.5" stroke="white"/>
    <path d="M157.505 32.5606C157.428 32.0454 156.99 31.6495 156.451 31.6495H164.393C164.393 30.4617 163.935 29.3693 163.186 28.649V12.9976C163.186 11.2039 162.604 9.46278 161.531 8.02691L160.763 7.0013C160.586 6.76278 160.229 6.76278 160.047 7.0013L159.279 8.02691C159.036 8.35129 158.821 8.69953 158.635 9.06684C158.607 6.1331 157.634 3.23752 155.873 0.89053L155.859 0.871449C155.501 0.394418 154.972 0.0557257 154.38 0.00802265C153.674 -0.0539914 153.011 0.246538 152.591 0.804664L152.534 0.880989C150.731 3.28045 149.758 6.19511 149.758 9.19564V9.27196C149.538 8.83787 149.286 8.41808 148.995 8.03168L148.226 7.00607C148.05 6.76755 147.692 6.76755 147.511 7.00607L146.738 8.03645C145.665 9.46755 145.083 11.2135 145.083 13.0023V28.7778C144.405 29.4933 144 30.5332 144 31.6543H151.947C151.413 31.6543 150.974 32.0502 150.893 32.5654H144C144 33.0663 144.405 33.4765 144.911 33.4765H145.088V35.5277C145.088 35.7758 145.288 35.9762 145.536 35.9762H150.884V36.6488H151.628V35.9762H153.765V31.659H151.962V30.7479H154.018C154.008 30.724 153.999 30.6954 153.999 30.6668V18.1924C153.999 18.0732 154.094 17.9778 154.213 17.9778H154.237C154.356 17.9778 154.452 18.0732 154.452 18.1924V30.6668C154.452 30.6954 154.447 30.724 154.433 30.7479H156.451V31.659H154.671V35.9762H156.784V36.6488H157.529V35.9762H162.747C162.995 35.9762 163.196 35.7758 163.196 35.5277V33.4765H163.496C163.997 33.4765 164.407 33.071 164.407 32.5654H157.514L157.505 32.5606ZM150.874 35.0793H145.975V33.4717H150.874V35.0793ZM159.403 13.0023H159.79C160.128 13.0023 160.405 12.7257 160.405 12.387V8.01737L160.815 8.56596C161.774 9.8444 162.294 11.3995 162.294 12.9976V28.0336L160.615 27.1606C160.548 27.0509 160.472 26.9269 160.405 26.8172V20.9497C160.405 20.611 160.128 20.3343 159.79 20.3343H158.898C158.898 20.3343 158.879 20.3391 158.869 20.3391C158.745 20.3391 158.645 20.2389 158.645 20.1149C158.645 19.9908 158.745 19.8907 158.869 19.8907V19.8811H159.794C160.133 19.8811 160.41 19.6045 160.41 19.2658C160.41 18.9271 160.133 18.6504 159.794 18.6504H158.869C158.745 18.6504 158.645 18.5502 158.645 18.4262C158.645 18.3022 158.745 18.202 158.869 18.202H159.794C160.133 18.202 160.41 17.9253 160.41 17.5866V15.1442C160.41 14.8055 160.133 14.5288 159.794 14.5288H159.408C158.988 14.5288 158.645 14.1854 158.645 13.7656C158.645 13.3458 158.988 13.0023 159.408 13.0023H159.403ZM160.486 28.7205V30.6859H157.524V28.7205H160.486ZM147.249 20.3343H146.233C146.233 20.3343 146.213 20.3391 146.204 20.3391C146.08 20.3391 145.98 20.2389 145.98 20.1149C145.98 19.9908 146.08 19.8907 146.204 19.8907V19.8811H147.249C147.587 19.8811 147.864 19.6045 147.864 19.2658C147.864 18.9271 147.587 18.6504 147.249 18.6504H146.204C146.08 18.6504 145.98 18.5502 145.98 18.4262C145.98 18.3022 146.08 18.202 146.204 18.202H147.249C147.587 18.202 147.864 17.9253 147.864 17.5866V15.1442C147.864 14.8055 147.587 14.5288 147.249 14.5288H146.738C146.318 14.5288 145.975 14.1854 145.975 13.7656C145.975 13.3458 146.314 13.0023 146.738 13.0023H147.249C147.587 13.0023 147.864 12.7257 147.864 12.387V8.01737L148.279 8.57073C149.238 9.84917 149.758 11.4043 149.758 13.0023V25.1094C149.357 25.9442 148.708 26.6502 147.869 27.1129V20.9497C147.869 20.611 147.592 20.3343 147.253 20.3343H147.249ZM150.874 30.6859H147.912V28.7205H150.874V30.6859ZM153.507 17.5628C153.273 17.5628 153.083 17.3719 153.083 17.1382C153.083 16.9045 153.273 16.7136 153.507 16.7136C153.741 16.7136 153.932 16.9045 153.932 17.1382C153.932 17.3719 153.741 17.5628 153.507 17.5628ZM154.843 17.5628C154.609 17.5628 154.418 17.3719 154.418 17.1382C154.418 16.9045 154.609 16.7136 154.843 16.7136C155.077 16.7136 155.267 16.9045 155.267 17.1382C155.267 17.3719 155.077 17.5628 154.843 17.5628ZM155.869 15.3255C155.869 15.7262 155.544 16.0506 155.143 16.0506H153.25C152.849 16.0506 152.525 15.7262 152.525 15.3255V15.2492C152.525 14.8485 152.849 14.5241 153.25 14.5241H155.143C155.544 14.5241 155.869 14.8485 155.869 15.2492V15.3255ZM156.436 12.2916H151.952L151.16 14.9582C150.955 15.6546 150.783 16.3559 150.645 17.0666V9.20518C150.645 6.41932 151.566 3.66208 153.235 1.43434L153.302 1.34848C153.517 1.06226 153.841 0.90007 154.194 0.90007C154.547 0.90007 154.876 1.06226 155.086 1.34848L155.153 1.43434C156.823 3.66208 157.743 6.41932 157.743 9.20518V17.0666C157.605 16.3559 157.433 15.6546 157.228 14.9582L156.455 12.3584C156.455 12.3584 156.441 12.325 156.436 12.3059C156.436 12.3059 156.436 12.2963 156.436 12.2916ZM162.294 35.0793H157.519V33.4717H162.294V35.0793Z" fill="#BDDEF2"/>
    <path d="M154.681 9.92075C154.519 9.88259 154.357 9.87305 154.2 9.87305C153.255 9.87305 152.42 10.4932 152.148 11.3995H156.241C156.003 10.6745 155.426 10.0925 154.677 9.92552L154.681 9.92075Z" fill="#BDDEF2"/>
    <path d="M154.2 8.12206C154.434 8.12206 154.625 7.93198 154.625 7.69751C154.625 7.46303 154.434 7.27295 154.2 7.27295C153.965 7.27295 153.775 7.46303 153.775 7.69751C153.775 7.93198 153.965 8.12206 154.2 8.12206Z" fill="#BDDEF2"/>
    <path d="M154.2 6.41943C154.434 6.41943 154.625 6.22935 154.625 5.99487C154.625 5.76039 154.434 5.57031 154.2 5.57031C153.965 5.57031 153.775 5.76039 153.775 5.99487C153.775 6.22935 153.965 6.41943 154.2 6.41943Z" fill="#BDDEF2"/>
    <path d="M154.666 36.6917C154.514 36.6631 154.361 36.644 154.199 36.644C154.037 36.644 153.898 36.6584 153.755 36.687C152.61 36.8969 151.742 37.8986 151.742 39.1008C151.742 40.4555 152.844 44.8299 154.199 44.8299C155.554 44.8299 156.656 40.4603 156.656 39.1008C156.656 37.9034 155.797 36.9064 154.666 36.6917ZM154.189 41.1377C153.064 41.1377 152.152 40.2265 152.152 39.1008C152.152 37.975 153.064 37.0638 154.189 37.0638C155.315 37.0638 156.226 37.975 156.226 39.1008C156.226 40.2265 155.315 41.1377 154.189 41.1377Z" fill="#BDDEF2"/>
    <path d="M154.189 37.4739C153.287 37.4739 152.562 38.2038 152.562 39.1006C152.562 39.9974 153.292 40.7273 154.189 40.7273C155.086 40.7273 155.816 39.9974 155.816 39.1006C155.816 38.2038 155.086 37.4739 154.189 37.4739Z" fill="#BDDEF2"/>
</svg>     