<svg width="32" height="97" viewBox="0 0 32 97" fill="none" xmlns="http://www.w3.org/2000/svg">
    <rect x="6" width="20" height="97" fill="url(#paint0_linear_105_617)"/>
    <rect x="22" width="4" height="97" fill="url(#paint1_linear_105_617)"/>
    <rect x="16" width="4" height="97" fill="url(#paint2_linear_105_617)"/>
    <rect y="32" width="32" height="35" rx="2" fill="#333333"/>
    <rect x="11" y="36" width="10" height="27" rx="5" fill="#050505"/>
    <path d="M13 58C13 59.6569 14.3431 61 16 61C17.6569 61 19 59.6569 19 58V41C19 39.3431 17.6569 38 16 38C14.3431 38 13 39.3431 13 41V58Z" fill="url(#paint3_linear_105_617)"/>
    <g filter="url(#filter0_f_105_617)">
    <path d="M15 60C15 60.5523 15.4477 61 16 61C16.5523 61 17 60.5523 17 60V39C17 38.4477 16.5523 38 16 38C15.4477 38 15 38.4477 15 39V60Z" fill="white"/>
    </g>
    <defs>
    <filter id="filter0_f_105_617" x="11" y="34" width="10" height="31" filterUnits="userSpaceOnUse" color-interpolation-filters="sRGB">
    <feFlood flood-opacity="0" result="BackgroundImageFix"/>
    <feBlend mode="normal" in="SourceGraphic" in2="BackgroundImageFix" result="shape"/>
    <feGaussianBlur stdDeviation="2" result="effect1_foregroundBlur_105_617"/>
    </filter>
    <linearGradient id="paint0_linear_105_617" x1="16" y1="0" x2="16" y2="97" gradientUnits="userSpaceOnUse">
    <stop stop-color="white" stop-opacity="0.32"/>
    <stop offset="0.11" stop-color="white" stop-opacity="0.24"/>
    <stop offset="1" stop-color="white" stop-opacity="0.08"/>
    </linearGradient>
    <linearGradient id="paint1_linear_105_617" x1="24" y1="0" x2="24" y2="97" gradientUnits="userSpaceOnUse">
    <stop stop-color="white" stop-opacity="0.32"/>
    <stop offset="0.11" stop-color="white" stop-opacity="0.24"/>
    <stop offset="1" stop-color="white" stop-opacity="0.08"/>
    </linearGradient>
    <linearGradient id="paint2_linear_105_617" x1="18" y1="0" x2="18" y2="97" gradientUnits="userSpaceOnUse">
    <stop stop-color="white" stop-opacity="0.32"/>
    <stop offset="0.11" stop-color="white" stop-opacity="0.24"/>
    <stop offset="1" stop-color="white" stop-opacity="0.08"/>
    </linearGradient>
    <linearGradient id="paint3_linear_105_617" x1="14.2757" y1="93.6972" x2="21.1625" y2="93.4285" gradientUnits="userSpaceOnUse">
    <stop stop-color="#86FDD2"/>
    <stop offset="0.333" stop-color="#F4E987"/>
    <stop offset="0.666" stop-color="#F86675"/>
    <stop offset="1" stop-color="#AD69F0"/>
    </linearGradient>
    </defs>
</svg>