<svg width="117" height="97" viewBox="0 0 117 97" fill="none" xmlns="http://www.w3.org/2000/svg">
    <rect x="32" width="20" height="97" fill="url(#paint0_linear_105_626)"/>
    <rect x="67" width="20" height="97" fill="url(#paint1_linear_105_626)"/>
    <rect x="83" width="4" height="97" fill="url(#paint2_linear_105_626)"/>
    <rect x="77" width="4" height="97" fill="url(#paint3_linear_105_626)"/>
    <rect y="28" width="117" height="44" rx="2" fill="#333333"/>
    <rect x="70.5" y="35.5" width="9" height="28" fill="#171717" stroke="url(#paint4_linear_105_626)"/>
    <g opacity="0.8" filter="url(#filter0_f_105_626)">
    <rect x="71" y="44" width="8" height="20" fill="#00FFAE"/>
    </g>
    <rect opacity="0.8" x="71" y="44" width="8" height="20" fill="#00FFAE"/>
    <rect x="83.5" y="35.5" width="9" height="28" fill="#171717" stroke="url(#paint5_linear_105_626)"/>
    <g opacity="0.8" filter="url(#filter1_f_105_626)">
    <rect x="84" y="45" width="8" height="19" fill="#00FFAE"/>
    </g>
    <rect opacity="0.8" x="84" y="45" width="8" height="19" fill="#00FFAE"/>
    <rect x="96.5" y="35.5" width="9" height="28" fill="#171717" stroke="url(#paint6_linear_105_626)"/>
    <g opacity="0.8" filter="url(#filter2_f_105_626)">
    <rect x="97" y="40" width="8" height="24" fill="#00FFAE"/>
    </g>
    <rect opacity="0.8" x="97" y="40" width="8" height="24" fill="#00FFAE"/>
    <mask id="mask0_105_626" style="mask-type:alpha" maskUnits="userSpaceOnUse" x="8" y="35" width="51" height="29">
    <rect x="8" y="35" width="51" height="29" fill="url(#paint7_linear_105_626)"/>
    </mask>
    <g mask="url(#mask0_105_626)">
    <rect x="8" y="35" width="51" height="29" fill="url(#paint8_linear_105_626)"/>
    <rect x="8.5" y="35.5" width="50" height="28" fill="url(#paint9_linear_105_626)" stroke="url(#paint10_linear_105_626)"/>
    <g opacity="0.78" filter="url(#filter3_f_105_626)">
    <path d="M18.152 45.44H17.08L16.36 44.72L17.08 44H19.592L18.152 45.44ZM19.72 49.28L19 50L19.72 50.72V54.432L19 55.152L18.28 54.432V50.72L19 50L18.28 49.28V45.568L19.72 44.128V49.28ZM19.128 55.28L19.848 54.56H22.28L23 55.28L22.28 56H19.8L19.128 55.28ZM18.152 56H15.672L15 55.28L15.72 54.56H18.152L18.872 55.28L18.152 56Z" fill="#00FFAE"/>
    <path d="M25.4543 44H29.2783L29.9983 44.72L29.2783 45.44H25.4543L24.7343 44.72L25.4543 44ZM25.4543 54.56H29.2783L29.9983 55.28L29.2783 56H25.4382L24.7343 55.28L25.4543 54.56ZM29.4062 50.72L30.1263 50L29.4062 49.312V45.568L30.1263 44.848L30.8463 45.568V49.28L30.1263 50L30.8463 50.72V54.432L30.1263 55.152L29.4062 54.432V50.72ZM23.8862 50.72L24.6062 50L23.8862 49.28V45.568L24.6062 44.848L25.3263 45.568V49.28L24.6062 50L25.3263 50.72V54.432L24.6062 55.152L23.8862 54.432V50.72ZM28.2063 45.632H29.2143V46.784L26.5262 54.368H25.5182V53.216L28.2063 45.632Z" fill="#00FFAE"/>
    <path d="M33.8605 44H37.6845L38.4045 44.72L37.6845 45.44H33.8605L33.1405 44.72L33.8605 44ZM33.8605 54.56H37.6845L38.4045 55.28L37.6845 56H33.8445L33.1405 55.28L33.8605 54.56ZM37.8125 50.72L38.5325 50L37.8125 49.312V45.568L38.5325 44.848L39.2525 45.568V49.28L38.5325 50L39.2525 50.72V54.432L38.5325 55.152L37.8125 54.432V50.72ZM32.2925 50.72L33.0125 50L32.2925 49.28V45.568L33.0125 44.848L33.7325 45.568V49.28L33.0125 50L33.7325 50.72V54.432L33.0125 55.152L32.2925 54.432V50.72ZM36.6125 45.632H37.6205V46.784L34.9325 54.368H33.9245V53.216L36.6125 45.632Z" fill="#00FFAE"/>
    <path d="M42.2348 49.28H44.8908L45.6108 50L44.8908 50.72H42.2668L41.5467 50L42.2348 49.28ZM40.6987 45.568L41.4188 44.848L42.1388 45.568V49.152L41.4188 49.872L40.6987 49.184V45.568ZM42.2668 44H44.8908L45.6108 44.72L44.8908 45.44H42.2668L41.5467 44.72L42.2668 44ZM45.0188 45.568L45.7388 44.848L46.4587 45.568V49.152L45.7388 49.872L45.0188 49.184V45.568ZM43.5467 54.4H42.5068V53.36L50.3148 45.568H51.3387V46.608L43.5467 54.4ZM48.8908 54.56H51.5467L52.2668 55.28L51.5467 56H48.9227L48.2028 55.28L48.8908 54.56ZM47.3548 50.848L48.0747 50.128L48.7948 50.848V54.432L48.0747 55.152L47.3548 54.464V50.848ZM48.9227 49.28H51.5467L52.2668 50L51.5467 50.72H48.9227L48.2028 50L48.9227 49.28ZM51.6748 50.848L52.3947 50.128L53.1147 50.848V54.432L52.3947 55.152L51.6748 54.464V50.848Z" fill="#00FFAE"/>
    </g>
    <path d="M18.152 45.44H17.08L16.36 44.72L17.08 44H19.592L18.152 45.44ZM19.72 49.28L19 50L19.72 50.72V54.432L19 55.152L18.28 54.432V50.72L19 50L18.28 49.28V45.568L19.72 44.128V49.28ZM19.128 55.28L19.848 54.56H22.28L23 55.28L22.28 56H19.8L19.128 55.28ZM18.152 56H15.672L15 55.28L15.72 54.56H18.152L18.872 55.28L18.152 56Z" fill="#00FFAE" fill-opacity="0.75"/>
    <path d="M25.4543 44H29.2783L29.9983 44.72L29.2783 45.44H25.4543L24.7343 44.72L25.4543 44ZM25.4543 54.56H29.2783L29.9983 55.28L29.2783 56H25.4382L24.7343 55.28L25.4543 54.56ZM29.4062 50.72L30.1263 50L29.4062 49.312V45.568L30.1263 44.848L30.8463 45.568V49.28L30.1263 50L30.8463 50.72V54.432L30.1263 55.152L29.4062 54.432V50.72ZM23.8862 50.72L24.6062 50L23.8862 49.28V45.568L24.6062 44.848L25.3263 45.568V49.28L24.6062 50L25.3263 50.72V54.432L24.6062 55.152L23.8862 54.432V50.72ZM28.2063 45.632H29.2143V46.784L26.5262 54.368H25.5182V53.216L28.2063 45.632Z" fill="#00FFAE" fill-opacity="0.75"/>
    <path d="M33.8605 44H37.6845L38.4045 44.72L37.6845 45.44H33.8605L33.1405 44.72L33.8605 44ZM33.8605 54.56H37.6845L38.4045 55.28L37.6845 56H33.8445L33.1405 55.28L33.8605 54.56ZM37.8125 50.72L38.5325 50L37.8125 49.312V45.568L38.5325 44.848L39.2525 45.568V49.28L38.5325 50L39.2525 50.72V54.432L38.5325 55.152L37.8125 54.432V50.72ZM32.2925 50.72L33.0125 50L32.2925 49.28V45.568L33.0125 44.848L33.7325 45.568V49.28L33.0125 50L33.7325 50.72V54.432L33.0125 55.152L32.2925 54.432V50.72ZM36.6125 45.632H37.6205V46.784L34.9325 54.368H33.9245V53.216L36.6125 45.632Z" fill="#00FFAE" fill-opacity="0.75"/>
    <path d="M42.2348 49.28H44.8908L45.6108 50L44.8908 50.72H42.2668L41.5467 50L42.2348 49.28ZM40.6987 45.568L41.4188 44.848L42.1388 45.568V49.152L41.4188 49.872L40.6987 49.184V45.568ZM42.2668 44H44.8908L45.6108 44.72L44.8908 45.44H42.2668L41.5467 44.72L42.2668 44ZM45.0188 45.568L45.7388 44.848L46.4587 45.568V49.152L45.7388 49.872L45.0188 49.184V45.568ZM43.5467 54.4H42.5068V53.36L50.3148 45.568H51.3387V46.608L43.5467 54.4ZM48.8908 54.56H51.5467L52.2668 55.28L51.5467 56H48.9227L48.2028 55.28L48.8908 54.56ZM47.3548 50.848L48.0747 50.128L48.7948 50.848V54.432L48.0747 55.152L47.3548 54.464V50.848ZM48.9227 49.28H51.5467L52.2668 50L51.5467 50.72H48.9227L48.2028 50L48.9227 49.28ZM51.6748 50.848L52.3947 50.128L53.1147 50.848V54.432L52.3947 55.152L51.6748 54.464V50.848Z" fill="#00FFAE" fill-opacity="0.75"/>
    <path d="M-44 43.5H94M-44 42.2H94M-44 40.9H94M-44 39.6H94M-44 38.3H94M-44 37H94M-44 35.7H94M-44 34.4H94M-44 33.1H94M-44 31.8H94M-44 30.5H94M-44 29.2H94M-44 27.9H94M-44 26.6H94M-44 25.3H94M-44 24H94M-44 22.7H94M-44 21.4H94M-44 20.1H94M-44 18.8H94M-44 17.5H94M-44 16.2H94M-44 14.9H94M-44 13.6H94M-44 12.3H94M-44 11H94M-44 9.69999H94M-44 8.39999H94M-44 7.10001H94M-44 5.8H94M-44 4.5H94M-44 3.2H94M-44 1.89999H94M-44 0.600009H94M-44 -0.700002H94M-44 -2H94M-44 89H94M-44 87.7H94M-44 86.4H94M-44 85.1H94M-44 83.8H94M-44 82.5H94M-44 81.2H94M-44 79.9H94M-44 78.6H94M-44 77.3H94M-44 76H94M-44 74.7H94M-44 73.4H94M-44 72.1H94M-44 70.8H94M-44 69.5H94M-44 68.2H94M-44 66.9H94M-44 65.6H94M-44 64.3H94M-44 63H94M-44 61.7H94M-44 60.4H94M-44 59.1H94M-44 57.8H94M-44 56.5H94M-44 55.2H94M-44 53.9H94M-44 52.6H94M-44 51.3H94M-44 50H94M-44 48.7H94M-44 47.4H94M-44 46.1H94M-44 44.8H94" stroke="url(#paint11_linear_105_626)" stroke-width="0.894393"/>
    </g>
    <defs>
    <filter id="filter0_f_105_626" x="69" y="42" width="12" height="24" filterUnits="userSpaceOnUse" color-interpolation-filters="sRGB">
    <feFlood flood-opacity="0" result="BackgroundImageFix"/>
    <feBlend mode="normal" in="SourceGraphic" in2="BackgroundImageFix" result="shape"/>
    <feGaussianBlur stdDeviation="1" result="effect1_foregroundBlur_105_626"/>
    </filter>
    <filter id="filter1_f_105_626" x="82" y="43" width="12" height="23" filterUnits="userSpaceOnUse" color-interpolation-filters="sRGB">
    <feFlood flood-opacity="0" result="BackgroundImageFix"/>
    <feBlend mode="normal" in="SourceGraphic" in2="BackgroundImageFix" result="shape"/>
    <feGaussianBlur stdDeviation="1" result="effect1_foregroundBlur_105_626"/>
    </filter>
    <filter id="filter2_f_105_626" x="95" y="38" width="12" height="28" filterUnits="userSpaceOnUse" color-interpolation-filters="sRGB">
    <feFlood flood-opacity="0" result="BackgroundImageFix"/>
    <feBlend mode="normal" in="SourceGraphic" in2="BackgroundImageFix" result="shape"/>
    <feGaussianBlur stdDeviation="1" result="effect1_foregroundBlur_105_626"/>
    </filter>
    <filter id="filter3_f_105_626" x="13" y="42" width="42.1147" height="16" filterUnits="userSpaceOnUse" color-interpolation-filters="sRGB">
    <feFlood flood-opacity="0" result="BackgroundImageFix"/>
    <feBlend mode="normal" in="SourceGraphic" in2="BackgroundImageFix" result="shape"/>
    <feGaussianBlur stdDeviation="1" result="effect1_foregroundBlur_105_626"/>
    </filter>
    <linearGradient id="paint0_linear_105_626" x1="42" y1="0" x2="42" y2="97" gradientUnits="userSpaceOnUse">
    <stop stop-color="white" stop-opacity="0.32"/>
    <stop offset="0.11" stop-color="white" stop-opacity="0.24"/>
    <stop offset="1" stop-color="white" stop-opacity="0.08"/>
    </linearGradient>
    <linearGradient id="paint1_linear_105_626" x1="77" y1="0" x2="77" y2="97" gradientUnits="userSpaceOnUse">
    <stop stop-color="white" stop-opacity="0.32"/>
    <stop offset="0.11" stop-color="white" stop-opacity="0.24"/>
    <stop offset="1" stop-color="white" stop-opacity="0.08"/>
    </linearGradient>
    <linearGradient id="paint2_linear_105_626" x1="85" y1="0" x2="85" y2="97" gradientUnits="userSpaceOnUse">
    <stop stop-color="white" stop-opacity="0.32"/>
    <stop offset="0.11" stop-color="white" stop-opacity="0.24"/>
    <stop offset="1" stop-color="white" stop-opacity="0.08"/>
    </linearGradient>
    <linearGradient id="paint3_linear_105_626" x1="79" y1="0" x2="79" y2="97" gradientUnits="userSpaceOnUse">
    <stop stop-color="white" stop-opacity="0.32"/>
    <stop offset="0.11" stop-color="white" stop-opacity="0.24"/>
    <stop offset="1" stop-color="white" stop-opacity="0.08"/>
    </linearGradient>
    <linearGradient id="paint4_linear_105_626" x1="75" y1="35" x2="75" y2="64" gradientUnits="userSpaceOnUse">
    <stop stop-color="white" stop-opacity="0.32"/>
    <stop offset="0.11" stop-color="white" stop-opacity="0.24"/>
    <stop offset="1" stop-color="white" stop-opacity="0.08"/>
    </linearGradient>
    <linearGradient id="paint5_linear_105_626" x1="88" y1="35" x2="88" y2="64" gradientUnits="userSpaceOnUse">
    <stop stop-color="white" stop-opacity="0.32"/>
    <stop offset="0.11" stop-color="white" stop-opacity="0.24"/>
    <stop offset="1" stop-color="white" stop-opacity="0.08"/>
    </linearGradient>
    <linearGradient id="paint6_linear_105_626" x1="101" y1="35" x2="101" y2="64" gradientUnits="userSpaceOnUse">
    <stop stop-color="white" stop-opacity="0.32"/>
    <stop offset="0.11" stop-color="white" stop-opacity="0.24"/>
    <stop offset="1" stop-color="white" stop-opacity="0.08"/>
    </linearGradient>
    <linearGradient id="paint7_linear_105_626" x1="33.5" y1="64" x2="33.5" y2="35" gradientUnits="userSpaceOnUse">
    <stop stop-color="#040404"/>
    <stop offset="1" stop-color="#161616"/>
    </linearGradient>
    <linearGradient id="paint8_linear_105_626" x1="33.5" y1="64" x2="33.5" y2="35" gradientUnits="userSpaceOnUse">
    <stop stop-color="#040404"/>
    <stop offset="1" stop-color="#161616"/>
    </linearGradient>
    <linearGradient id="paint9_linear_105_626" x1="33.5" y1="64" x2="33.5" y2="35" gradientUnits="userSpaceOnUse">
    <stop stop-color="#040404"/>
    <stop offset="1" stop-color="#161616"/>
    </linearGradient>
    <linearGradient id="paint10_linear_105_626" x1="33.5" y1="35" x2="33.5" y2="64" gradientUnits="userSpaceOnUse">
    <stop stop-color="white" stop-opacity="0.32"/>
    <stop offset="0.11" stop-color="white" stop-opacity="0.24"/>
    <stop offset="1" stop-color="white" stop-opacity="0.08"/>
    </linearGradient>
    <linearGradient id="paint11_linear_105_626" x1="94" y1="43.5521" x2="-44" y2="43.5521" gradientUnits="userSpaceOnUse">
    <stop stop-color="white" stop-opacity="0.08"/>
    <stop offset="0.18" stop-color="white" stop-opacity="0.0687328"/>
    <stop offset="0.37" stop-color="white" stop-opacity="0.14"/>
    <stop offset="0.880918" stop-color="white" stop-opacity="0"/>
    <stop offset="1" stop-color="white" stop-opacity="0"/>
    </linearGradient>
    </defs>
</svg>