<svg width="167" height="52" viewBox="0 0 167 52" fill="none" xmlns="http://www.w3.org/2000/svg">
<g clip-path="url(#clip0_46_1998)">
<path d="M65.2227 34.6669L71.5886 17.262H76.0821L82.448 34.6669H77.7051L76.5062 31.3344H70.6641L69.4652 34.6669H65.2212H65.2227ZM71.9379 27.904H75.2339L73.5859 22.7313L71.9379 27.904Z" fill="white"/>
<path d="M83.5166 34.6667V21.4888H87.0621V23.2793C87.1618 23.0469 87.3159 22.8116 87.5243 22.5704C87.7327 22.3307 87.9778 22.1027 88.261 21.8864C88.5442 21.6715 88.8641 21.4976 89.2222 21.3646C89.5803 21.233 89.9662 21.1658 90.383 21.1658C90.6662 21.1658 90.8907 21.1818 91.0565 21.2155C91.2224 21.2491 91.3721 21.2812 91.5056 21.3149V24.621C91.422 24.5713 91.2312 24.5129 90.9318 24.4471C90.6324 24.3813 90.2832 24.3477 89.8826 24.3477C89.4335 24.3477 89.0505 24.4179 88.7335 24.5596C88.418 24.7 88.1597 24.8871 87.9602 25.1195C87.7606 25.3518 87.6109 25.6296 87.5111 25.9526C87.4113 26.2756 87.3614 26.6205 87.3614 26.9845V34.6682H83.5166V34.6667Z" fill="white"/>
<path d="M98.8752 34.8158C98.0432 34.8158 97.327 34.7369 96.7283 34.579C96.1296 34.4212 95.638 34.161 95.2549 33.7956C94.8719 33.4317 94.5887 32.9552 94.4067 32.3661C94.2233 31.7786 94.1323 31.0521 94.1323 30.1898V24.6196H92.5093V21.4873H94.1323V18.5042H97.9771V21.4873H100.997V24.6196H97.9771V29.5671C97.9771 29.9325 98.0021 30.2468 98.052 30.5113C98.1019 30.7774 98.1973 30.9922 98.3396 31.1574C98.4805 31.324 98.6639 31.4439 98.8884 31.5184C99.113 31.5929 99.4006 31.6295 99.7499 31.6295C99.9993 31.6295 100.249 31.6251 100.498 31.6178C100.748 31.609 100.997 31.5886 101.247 31.5549V34.6872C100.93 34.7208 100.598 34.75 100.249 34.7749C99.8995 34.7997 99.4417 34.8114 98.8752 34.8114V34.8158Z" fill="white"/>
<path d="M108.503 34.9898C107.537 34.9898 106.635 34.8524 105.794 34.579C104.953 34.3057 104.225 33.8877 103.609 33.3235C102.993 32.7608 102.511 32.0519 102.161 31.1969C101.811 30.3433 101.637 29.345 101.637 28.2005V27.7036C101.637 26.6088 101.807 25.6559 102.149 24.8447C102.489 24.032 102.956 23.3523 103.547 22.8057C104.137 22.2591 104.837 21.8483 105.644 21.575C106.452 21.3017 107.322 21.1643 108.254 21.1643C110.45 21.1643 112.101 21.7197 113.209 22.8306C114.316 23.9414 114.869 25.5652 114.869 27.7036V29.0717H105.583C105.599 29.5862 105.691 30.0203 105.857 30.3769C106.023 30.7335 106.24 31.0273 106.506 31.2597C106.771 31.4921 107.08 31.6617 107.43 31.7698C107.78 31.878 108.138 31.9306 108.503 31.9306C109.252 31.9306 109.834 31.818 110.251 31.5944C110.666 31.3708 110.941 31.0682 111.074 30.6868H114.62C114.486 31.4 114.253 32.0256 113.921 32.5649C113.588 33.1043 113.164 33.5559 112.647 33.9199C112.131 34.2853 111.525 34.5542 110.825 34.7281C110.126 34.9021 109.351 34.9898 108.503 34.9898ZM105.608 26.5606H111.101C111.101 26.0973 111.03 25.7158 110.888 25.4162C110.745 25.118 110.55 24.8783 110.301 24.6956C110.051 24.5129 109.759 24.3843 109.428 24.3097C109.094 24.2352 108.745 24.1972 108.38 24.1972C108.014 24.1972 107.693 24.2396 107.369 24.3214C107.044 24.4047 106.752 24.5406 106.496 24.7321C106.237 24.9221 106.029 25.1677 105.872 25.4658C105.713 25.764 105.625 26.1294 105.609 26.5606H105.608Z" fill="white"/>
<path d="M120.939 34.8158C120.141 34.8158 119.449 34.75 118.867 34.617C118.284 34.484 117.806 34.2399 117.432 33.8832C117.057 33.5266 116.779 33.0384 116.595 32.4158C116.412 31.7946 116.321 30.9951 116.321 30.0158V17.2603H120.166V29.4443C120.166 29.8594 120.191 30.2073 120.24 30.4894C120.29 30.7715 120.378 30.9951 120.503 31.1602C120.628 31.3269 120.807 31.4467 121.04 31.5213C121.274 31.5958 121.564 31.6323 121.913 31.6323C122.113 31.6323 122.279 31.628 122.412 31.6207C122.546 31.6119 122.678 31.6002 122.811 31.5827V34.7412C122.694 34.7573 122.565 34.7704 122.424 34.7792C122.283 34.7865 122.132 34.7953 121.975 34.8041C121.817 34.8128 121.651 34.8172 121.476 34.8172H120.939V34.8158Z" fill="white"/>
<path d="M128.334 34.8158C127.535 34.8158 126.844 34.75 126.261 34.617C125.679 34.484 125.2 34.2399 124.826 33.8832C124.452 33.5266 124.173 33.0384 123.99 32.4158C123.806 31.7946 123.715 30.9951 123.715 30.0158V17.2603H127.56V29.4443C127.56 29.8594 127.585 30.2073 127.635 30.4894C127.685 30.7715 127.773 30.9951 127.898 31.1602C128.022 31.3269 128.201 31.4467 128.435 31.5213C128.668 31.5958 128.959 31.6323 129.308 31.6323C129.508 31.6323 129.673 31.628 129.807 31.6207C129.94 31.6119 130.072 31.6002 130.206 31.5827V34.7412C130.089 34.7573 129.959 34.7704 129.819 34.7792C129.678 34.7865 129.527 34.7953 129.37 34.8041C129.211 34.8128 129.045 34.8172 128.871 34.8172H128.334V34.8158Z" fill="white"/>
<path d="M137.35 34.9898C136.384 34.9898 135.482 34.8524 134.641 34.579C133.8 34.3057 133.072 33.8877 132.456 33.3235C131.839 32.7608 131.358 32.0519 131.007 31.1969C130.658 30.3433 130.483 29.345 130.483 28.2005V27.7036C130.483 26.6088 130.654 25.6559 130.996 24.8447C131.336 24.032 131.803 23.3523 132.394 22.8057C132.984 22.2591 133.684 21.8483 134.491 21.575C135.298 21.3017 136.168 21.1643 137.1 21.1643C139.297 21.1643 140.948 21.7197 142.056 22.8306C143.162 23.9414 143.716 25.5652 143.716 27.7036V29.0717H134.429C134.446 29.5862 134.538 30.0203 134.704 30.3769C134.87 30.7335 135.087 31.0273 135.353 31.2597C135.618 31.4921 135.926 31.6617 136.277 31.7698C136.626 31.878 136.984 31.9306 137.35 31.9306C138.098 31.9306 138.681 31.818 139.098 31.5944C139.513 31.3708 139.787 31.0682 139.921 30.6868H143.466C143.333 31.4 143.099 32.0256 142.768 32.5649C142.435 33.1043 142.011 33.5559 141.494 33.9199C140.977 34.2853 140.371 34.5542 139.671 34.7281C138.973 34.9021 138.198 34.9898 137.35 34.9898ZM134.454 26.5606H139.947C139.947 26.0973 139.877 25.7158 139.734 25.4162C139.592 25.118 139.397 24.8783 139.147 24.6956C138.898 24.5129 138.606 24.3843 138.274 24.3097C137.941 24.2352 137.592 24.1972 137.227 24.1972C136.861 24.1972 136.54 24.2396 136.215 24.3214C135.891 24.4047 135.599 24.5406 135.342 24.7321C135.084 24.9221 134.876 25.1677 134.719 25.4658C134.56 25.764 134.472 26.1294 134.456 26.5606H134.454Z" fill="white"/>
<path d="M151.538 34.9898C150.556 34.9898 149.652 34.8494 148.829 34.5674C148.005 34.2853 147.294 33.8629 146.693 33.2987C146.095 32.7359 145.628 32.03 145.295 31.1852C144.962 30.3404 144.796 29.345 144.796 28.202V27.7051C144.796 26.66 144.975 25.7319 145.333 24.9207C145.691 24.1095 146.174 23.4254 146.781 22.87C147.389 22.3146 148.105 21.8922 148.928 21.6013C149.752 21.3119 150.622 21.1658 151.538 21.1658C152.535 21.1658 153.413 21.2988 154.172 21.5633C154.929 21.8293 155.566 22.1889 156.081 22.6449C156.596 23.101 156.997 23.6359 157.278 24.2483C157.562 24.8622 157.727 25.517 157.777 26.2127H153.833C153.699 25.6164 153.454 25.156 153.096 24.833C152.738 24.51 152.218 24.3477 151.536 24.3477C151.137 24.3477 150.766 24.4179 150.425 24.5596C150.083 24.7 149.788 24.9075 149.539 25.1808C149.289 25.4542 149.093 25.802 148.952 26.2259C148.811 26.6483 148.739 27.1423 148.739 27.7051V28.202C148.739 28.8159 148.805 29.3464 148.939 29.7937C149.071 30.241 149.259 30.6137 149.501 30.9133C149.741 31.2115 150.038 31.4322 150.387 31.5725C150.736 31.7128 151.119 31.7844 151.536 31.7844C152.119 31.7844 152.613 31.631 153.021 31.324C153.429 31.0171 153.699 30.5581 153.833 29.9443H157.777C157.727 30.7233 157.544 31.4234 157.228 32.0461C156.913 32.6672 156.483 33.1978 155.943 33.6378C155.401 34.0777 154.762 34.4124 154.021 34.6448C153.279 34.8772 152.452 34.9927 151.536 34.9927L151.538 34.9898Z" fill="white"/>
<path d="M164.629 34.8158C163.797 34.8158 163.08 34.7369 162.482 34.579C161.883 34.4212 161.391 34.161 161.008 33.7956C160.625 33.4317 160.342 32.9552 160.16 32.3661C159.977 31.7786 159.886 31.0521 159.886 30.1898V24.6196H158.263V21.4873H159.886V18.5042H163.731V21.4873H166.751V24.6196H163.731V29.5671C163.731 29.9325 163.756 30.2468 163.805 30.5113C163.855 30.7774 163.951 30.9922 164.093 31.1574C164.234 31.324 164.417 31.4439 164.642 31.5184C164.866 31.5929 165.154 31.6295 165.503 31.6295C165.753 31.6295 166.002 31.6251 166.252 31.6178C166.501 31.609 166.751 31.5886 167 31.5549V34.6872C166.683 34.7208 166.351 34.75 166.002 34.7749C165.653 34.7997 165.195 34.8114 164.629 34.8114V34.8158Z" fill="white"/>
<path d="M46.556 38.6306C45.6829 36.2511 43.4097 34.6681 40.8651 34.6681H36.4348C40.6435 34.6681 43.5711 30.4981 42.1257 26.5605L38.7402 17.3348L33.8329 3.96391C32.9598 1.58293 30.6866 0 28.142 0H19.6995L23.1525 9.40698C24.8988 14.1675 29.4466 17.3333 34.5344 17.3333H16.9597C14.4151 17.3333 12.142 18.9163 11.2688 21.2958L0 52H8.44245C10.9871 52 13.2602 50.4171 14.1334 48.0376L16.0646 42.7743C17.5101 38.8367 14.5824 34.6667 10.3737 34.6667H32.4212L37.3285 48.0376C38.2016 50.4171 40.4748 52 43.0194 52H51.4618L46.5546 38.6291L46.556 38.6306Z" fill="white"/>
</g>
<defs>
<clipPath id="clip0_46_1998">
<rect width="167" height="52" fill="white"/>
</clipPath>
</defs>
</svg>
