<svg width="594" height="164" viewBox="0 0 594 164" fill="none" xmlns="http://www.w3.org/2000/svg">
<g filter="url(#filter0_f_4014_5)">
<path d="M38.2383 125.827C36.9829 125.827 35.7275 125.713 34.4721 125.485C33.3308 125.371 32.3036 125.2 31.3906 124.973V99.6846C32.3036 99.7985 33.2167 99.9124 34.1297 100.026C35.0427 100.14 36.1269 100.197 37.3823 100.197C39.8931 100.197 41.9474 100.083 43.5452 99.8554C45.143 99.5137 46.5125 99.0011 47.6538 98.3176C48.7951 97.6342 49.651 96.7229 50.2217 95.5838C50.7923 94.4447 51.3629 93.0208 51.9336 91.3121L4 4H35.1568L66.9984 64.6572L91.9923 4H122.122L82.0632 94.3877C79.5524 100.311 76.9846 105.209 74.3596 109.082C71.7347 112.955 68.7674 116.202 65.4577 118.821C62.2621 121.327 58.4388 123.093 53.9879 124.118C49.651 125.257 44.4012 125.827 38.2383 125.827Z" fill="url(#paint0_linear_4014_5)"/>
<path d="M163.482 125.827C156.749 125.827 150.529 124.859 144.822 122.922C139.23 120.986 134.38 118.081 130.271 114.208C126.162 110.335 122.967 105.494 120.684 99.6846C118.402 93.8751 117.26 87.0405 117.26 79.1807V75.7634C117.26 68.5871 118.459 62.2081 120.855 56.6265C123.366 51.0449 126.676 46.3746 130.785 42.6156C135.007 38.8565 139.972 35.9518 145.678 33.9014C151.385 31.851 157.319 30.8258 163.482 30.8258C170.33 30.8258 176.321 31.7371 181.457 33.5597C186.707 35.3823 191.101 37.8883 194.639 41.0778C198.177 44.1533 200.916 47.7985 202.856 52.0131C204.796 56.2278 205.938 60.7273 206.28 65.5115H179.061C178.718 63.4611 178.148 61.6386 177.349 60.0438C176.55 58.4491 175.465 57.1391 174.096 56.1139C172.841 54.9748 171.357 54.1205 169.645 53.5509C167.933 52.9814 165.879 52.6966 163.482 52.6966C160.857 52.6966 158.346 53.2092 155.95 54.2344C153.553 55.1457 151.499 56.5695 149.787 58.506C148.189 60.3286 146.877 62.7207 145.849 65.6824C144.822 68.5301 144.309 71.8905 144.309 75.7634V79.1807C144.309 83.3954 144.765 87.0405 145.678 90.1161C146.591 93.1917 147.904 95.7546 149.616 97.805C151.328 99.8554 153.325 101.393 155.607 102.418C158.004 103.33 160.629 103.785 163.482 103.785C167.477 103.785 170.843 102.76 173.582 100.71C176.436 98.5454 178.262 95.299 179.061 90.9704H206.28C205.938 96.4381 204.682 101.336 202.514 105.665C200.345 109.88 197.435 113.525 193.783 116.6C190.131 119.562 185.737 121.84 180.601 123.435C175.465 125.03 169.759 125.827 163.482 125.827Z" fill="url(#paint1_linear_4014_5)"/>
<path d="M221.888 125.827C221.431 125.827 220.861 125.827 220.176 125.827C219.491 125.827 218.749 125.77 217.95 125.656C217.266 125.656 216.581 125.599 215.896 125.485C215.211 125.485 214.641 125.428 214.184 125.314V102.248C214.527 102.361 215.382 102.418 216.752 102.418C218.806 102.418 220.518 101.849 221.888 100.71C223.371 99.5706 224.627 97.6342 225.654 94.9003C226.681 92.0526 227.423 88.4074 227.879 83.9649C228.45 79.4085 228.735 73.8269 228.735 67.2201V33.0471H304.06V123.606H277.525V54.5761H253.387V70.6375C253.387 82.0285 252.702 91.3121 251.333 98.4885C249.963 105.551 247.966 111.133 245.341 115.233C242.716 119.334 239.406 122.125 235.412 123.606C231.532 125.087 227.024 125.827 221.888 125.827Z" fill="url(#paint2_linear_4014_5)"/>
<path d="M339.107 160C338.194 160 337.338 159.943 336.539 159.829C335.74 159.829 334.884 159.715 333.971 159.487V137.617C334.884 137.844 335.74 137.958 336.539 137.958C337.338 138.072 338.194 138.129 339.107 138.129C340.819 138.129 342.246 137.844 343.387 137.275C344.528 136.819 345.612 135.965 346.639 134.712C347.781 133.573 348.808 132.092 349.721 130.269C350.634 128.447 351.604 126.169 352.631 123.435L314.284 33.0471H343.387L365.984 93.3625L387.383 33.0471H413.575L378.823 123.606C376.313 129.985 373.916 135.452 371.633 140.009C369.351 144.679 366.726 148.495 363.759 151.457C360.905 154.418 357.539 156.583 353.658 157.95C349.778 159.317 344.928 160 339.107 160Z" fill="url(#paint3_linear_4014_5)"/>
<path d="M423.78 123.606V33.0471H490.544V54.5761H450.143V123.606H423.78Z" fill="url(#paint4_linear_4014_5)"/>
<path d="M502.521 123.606V33.0471H528.2V87.724L566.547 33.0471H590V123.606H564.15V68.9288L525.803 123.606H502.521Z" fill="url(#paint5_linear_4014_5)"/>
</g>
<path d="M38.2383 125.827C36.9829 125.827 35.7275 125.713 34.4721 125.485C33.3308 125.371 32.3036 125.2 31.3906 124.973V99.6846C32.3036 99.7985 33.2167 99.9124 34.1297 100.026C35.0427 100.14 36.1269 100.197 37.3823 100.197C39.8931 100.197 41.9474 100.083 43.5452 99.8554C45.143 99.5137 46.5125 99.0011 47.6538 98.3176C48.7951 97.6342 49.651 96.7229 50.2217 95.5838C50.7923 94.4447 51.3629 93.0208 51.9336 91.3121L4 4H35.1568L66.9984 64.6572L91.9923 4H122.122L82.0632 94.3877C79.5524 100.311 76.9846 105.209 74.3596 109.082C71.7347 112.955 68.7674 116.202 65.4577 118.821C62.2621 121.327 58.4388 123.093 53.9879 124.118C49.651 125.257 44.4012 125.827 38.2383 125.827Z" fill="url(#paint6_linear_4014_5)"/>
<path d="M163.482 125.827C156.749 125.827 150.529 124.859 144.822 122.922C139.23 120.986 134.38 118.081 130.271 114.208C126.162 110.335 122.967 105.494 120.684 99.6846C118.402 93.8751 117.26 87.0405 117.26 79.1807V75.7634C117.26 68.5871 118.459 62.2081 120.855 56.6265C123.366 51.0449 126.676 46.3746 130.785 42.6156C135.007 38.8565 139.972 35.9518 145.678 33.9014C151.385 31.851 157.319 30.8258 163.482 30.8258C170.33 30.8258 176.321 31.7371 181.457 33.5597C186.707 35.3823 191.101 37.8883 194.639 41.0778C198.177 44.1533 200.916 47.7985 202.856 52.0131C204.796 56.2278 205.938 60.7273 206.28 65.5115H179.061C178.718 63.4611 178.148 61.6386 177.349 60.0438C176.55 58.4491 175.465 57.1391 174.096 56.1139C172.841 54.9748 171.357 54.1205 169.645 53.5509C167.933 52.9814 165.879 52.6966 163.482 52.6966C160.857 52.6966 158.346 53.2092 155.95 54.2344C153.553 55.1457 151.499 56.5695 149.787 58.506C148.189 60.3286 146.877 62.7207 145.849 65.6824C144.822 68.5301 144.309 71.8905 144.309 75.7634V79.1807C144.309 83.3954 144.765 87.0405 145.678 90.1161C146.591 93.1917 147.904 95.7546 149.616 97.805C151.328 99.8554 153.325 101.393 155.607 102.418C158.004 103.33 160.629 103.785 163.482 103.785C167.477 103.785 170.843 102.76 173.582 100.71C176.436 98.5454 178.262 95.299 179.061 90.9704H206.28C205.938 96.4381 204.682 101.336 202.514 105.665C200.345 109.88 197.435 113.525 193.783 116.6C190.131 119.562 185.737 121.84 180.601 123.435C175.465 125.03 169.759 125.827 163.482 125.827Z" fill="url(#paint7_linear_4014_5)"/>
<path d="M221.888 125.827C221.431 125.827 220.861 125.827 220.176 125.827C219.491 125.827 218.749 125.77 217.95 125.656C217.266 125.656 216.581 125.599 215.896 125.485C215.211 125.485 214.641 125.428 214.184 125.314V102.248C214.527 102.361 215.382 102.418 216.752 102.418C218.806 102.418 220.518 101.849 221.888 100.71C223.371 99.5706 224.627 97.6342 225.654 94.9003C226.681 92.0526 227.423 88.4074 227.879 83.9649C228.45 79.4085 228.735 73.8269 228.735 67.2201V33.0471H304.06V123.606H277.525V54.5761H253.387V70.6375C253.387 82.0285 252.702 91.3121 251.333 98.4885C249.963 105.551 247.966 111.133 245.341 115.233C242.716 119.334 239.406 122.125 235.412 123.606C231.532 125.087 227.024 125.827 221.888 125.827Z" fill="url(#paint8_linear_4014_5)"/>
<path d="M339.107 160C338.194 160 337.338 159.943 336.539 159.829C335.74 159.829 334.884 159.715 333.971 159.487V137.617C334.884 137.844 335.74 137.958 336.539 137.958C337.338 138.072 338.194 138.129 339.107 138.129C340.819 138.129 342.246 137.844 343.387 137.275C344.528 136.819 345.612 135.965 346.639 134.712C347.781 133.573 348.808 132.092 349.721 130.269C350.634 128.447 351.604 126.169 352.631 123.435L314.284 33.0471H343.387L365.984 93.3625L387.383 33.0471H413.575L378.823 123.606C376.313 129.985 373.916 135.452 371.633 140.009C369.351 144.679 366.726 148.495 363.759 151.457C360.905 154.418 357.539 156.583 353.658 157.95C349.778 159.317 344.928 160 339.107 160Z" fill="url(#paint9_linear_4014_5)"/>
<path d="M423.78 123.606V33.0471H490.544V54.5761H450.143V123.606H423.78Z" fill="url(#paint10_linear_4014_5)"/>
<path d="M502.521 123.606V33.0471H528.2V87.724L566.547 33.0471H590V123.606H564.15V68.9288L525.803 123.606H502.521Z" fill="url(#paint11_linear_4014_5)"/>
<defs>
<filter id="filter0_f_4014_5" x="0.6" y="0.6" width="592.8" height="162.8" filterUnits="userSpaceOnUse" color-interpolation-filters="sRGB">
<feFlood flood-opacity="0" result="BackgroundImageFix"/>
<feBlend mode="normal" in="SourceGraphic" in2="BackgroundImageFix" result="shape"/>
<feGaussianBlur stdDeviation="1.7" result="effect1_foregroundBlur_4014_5"/>
</filter>
<linearGradient id="paint0_linear_4014_5" x1="4" y1="82" x2="590" y2="82" gradientUnits="userSpaceOnUse">
<stop stop-color="white"/>
<stop offset="1" stop-color="white" stop-opacity="0"/>
</linearGradient>
<linearGradient id="paint1_linear_4014_5" x1="4" y1="82" x2="590" y2="82" gradientUnits="userSpaceOnUse">
<stop stop-color="white"/>
<stop offset="1" stop-color="white" stop-opacity="0"/>
</linearGradient>
<linearGradient id="paint2_linear_4014_5" x1="4" y1="82" x2="590" y2="82" gradientUnits="userSpaceOnUse">
<stop stop-color="white"/>
<stop offset="1" stop-color="white" stop-opacity="0"/>
</linearGradient>
<linearGradient id="paint3_linear_4014_5" x1="4" y1="82" x2="590" y2="82" gradientUnits="userSpaceOnUse">
<stop stop-color="white"/>
<stop offset="1" stop-color="white" stop-opacity="0"/>
</linearGradient>
<linearGradient id="paint4_linear_4014_5" x1="4" y1="82" x2="590" y2="82" gradientUnits="userSpaceOnUse">
<stop stop-color="white"/>
<stop offset="1" stop-color="white" stop-opacity="0"/>
</linearGradient>
<linearGradient id="paint5_linear_4014_5" x1="4" y1="82" x2="590" y2="82" gradientUnits="userSpaceOnUse">
<stop stop-color="white"/>
<stop offset="1" stop-color="white" stop-opacity="0"/>
</linearGradient>
<linearGradient id="paint6_linear_4014_5" x1="4" y1="82" x2="590" y2="82" gradientUnits="userSpaceOnUse">
<stop stop-color="white"/>
<stop offset="1" stop-color="white" stop-opacity="0"/>
</linearGradient>
<linearGradient id="paint7_linear_4014_5" x1="4" y1="82" x2="590" y2="82" gradientUnits="userSpaceOnUse">
<stop stop-color="white"/>
<stop offset="1" stop-color="white" stop-opacity="0"/>
</linearGradient>
<linearGradient id="paint8_linear_4014_5" x1="4" y1="82" x2="590" y2="82" gradientUnits="userSpaceOnUse">
<stop stop-color="white"/>
<stop offset="1" stop-color="white" stop-opacity="0"/>
</linearGradient>
<linearGradient id="paint9_linear_4014_5" x1="4" y1="82" x2="590" y2="82" gradientUnits="userSpaceOnUse">
<stop stop-color="white"/>
<stop offset="1" stop-color="white" stop-opacity="0"/>
</linearGradient>
<linearGradient id="paint10_linear_4014_5" x1="4" y1="82" x2="590" y2="82" gradientUnits="userSpaceOnUse">
<stop stop-color="white"/>
<stop offset="1" stop-color="white" stop-opacity="0"/>
</linearGradient>
<linearGradient id="paint11_linear_4014_5" x1="4" y1="82" x2="590" y2="82" gradientUnits="userSpaceOnUse">
<stop stop-color="white"/>
<stop offset="1" stop-color="white" stop-opacity="0"/>
</linearGradient>
</defs>
</svg>
