<svg width="581" height="93" viewBox="0 0 581 93" fill="none" xmlns="http://www.w3.org/2000/svg">
<g filter="url(#filter0_f_4014_6)">
<path d="M4.37475 1.73751H19.2799C22.2422 1.73751 24.8857 2.15354 27.2105 2.9856C29.5354 3.77984 31.504 4.9712 33.1164 6.55968C34.7287 8.14816 35.9661 10.1338 36.8286 12.5165C37.691 14.8992 38.1222 17.6412 38.1222 20.7425V21.8772C38.1222 25.0541 37.6723 27.8718 36.7723 30.3302C35.9099 32.7507 34.635 34.793 32.9476 36.4572C31.2977 38.0835 29.2729 39.3315 26.8731 40.2014C24.4732 41.0335 21.7547 41.4495 18.7174 41.4495H4.37475V1.73751ZM18.155 33.0533C19.4299 33.0533 20.6298 32.8642 21.7547 32.486C22.9171 32.0699 23.9295 31.427 24.792 30.5571C25.6919 29.6872 26.3856 28.5337 26.8731 27.0965C27.398 25.6593 27.6605 23.9195 27.6605 21.8772V20.7425C27.6605 18.8137 27.4168 17.1874 26.9293 15.8636C26.4793 14.5021 25.8419 13.4053 25.017 12.5732C24.2295 11.7033 23.2921 11.0793 22.2047 10.7011C21.1172 10.3229 19.9548 10.1338 18.7174 10.1338H14.499V33.0533H18.155Z" fill="white"/>
<path d="M45.1442 1.73751H55.2684V41.4495H45.1442V1.73751Z" fill="white"/>
<path d="M81.1327 42.187C78.4329 42.187 75.9393 41.8088 73.652 41.0524C71.3647 40.296 69.3773 39.1046 67.6899 37.4783C66.0026 35.8142 64.6714 33.6962 63.6965 31.1244C62.7591 28.5526 62.2903 25.4702 62.2903 21.8772V20.7425C62.2903 17.3008 62.7778 14.3508 63.7527 11.8924C64.7277 9.39626 66.0588 7.35392 67.7462 5.76544C69.4336 4.13914 71.4022 2.94778 73.652 2.19136C75.9018 1.39712 78.3017 1 80.8515 1C83.1013 1 85.2011 1.26475 87.151 1.79424C89.1008 2.32373 90.8257 3.1558 92.3256 4.29043C93.8255 5.38723 95.0629 6.80552 96.0378 8.54528C97.0503 10.285 97.7065 12.3652 98.0064 14.7857H87.5447C87.2822 13.7268 86.9073 12.8569 86.4198 12.1761C85.9323 11.4953 85.3886 10.9658 84.7887 10.5876C84.1887 10.1716 83.5513 9.88793 82.8763 9.73664C82.2014 9.58536 81.5264 9.50972 80.8515 9.50972C79.6516 9.50972 78.5454 9.69882 77.533 10.077C76.558 10.4552 75.7143 11.0793 75.0019 11.9492C74.2895 12.8191 73.727 13.9726 73.3145 15.4098C72.9396 16.847 72.7521 18.6246 72.7521 20.7425V21.8772C72.7521 23.9951 72.9583 25.8106 73.3708 27.3234C73.7832 28.7984 74.3457 30.0087 75.0581 30.9542C75.8081 31.8997 76.6893 32.5994 77.7017 33.0533C78.7516 33.4693 79.8953 33.6773 81.1327 33.6773C82.1451 33.6773 83.1388 33.5449 84.1137 33.2802C85.1261 33.0154 86.0073 32.5994 86.7573 32.0321C87.5447 31.4648 88.1822 30.7651 88.6696 29.933C89.1571 29.0632 89.4196 28.0231 89.4571 26.8128H82.2576V20.3454H98.8501V23.0118C98.8501 26.4157 98.4002 29.3279 97.5002 31.7484C96.6378 34.169 95.4191 36.1546 93.8442 37.7052C92.2694 39.2559 90.3945 40.3905 88.2197 41.1091C86.0823 41.8277 83.72 42.187 81.1327 42.187Z" fill="white"/>
<path d="M105.619 1.73751H115.744V41.4495H105.619V1.73751Z" fill="white"/>
<path d="M133.452 10.1338H121.359V1.73751H155.669V10.1338H143.577V41.4495H133.452V10.1338Z" fill="white"/>
<path d="M178.847 33.8475H165.686L162.986 41.4495H153.424L167.767 1.73751H177.891L192.234 41.4495H181.547L178.847 33.8475ZM168.554 26.0186H175.979L172.266 14.2184L168.554 26.0186Z" fill="white"/>
<path d="M196.731 1.73751H206.855V33.0533H223.729V41.4495H196.731V1.73751Z" fill="white"/>
<path d="M264.918 33.8475H251.757L249.057 41.4495H239.495L253.838 1.73751H263.962L278.305 41.4495H267.618L264.918 33.8475ZM254.626 26.0186H262.05L258.338 14.2184L254.626 26.0186Z" fill="white"/>
<path d="M282.802 1.73751H309.238V10.1338H292.927V41.4495H282.802V1.73751Z" fill="white"/>
<path d="M314.276 1.73751H342.961V9.56645H324.4V17.3387H341.274V24.7137H324.4V33.6206H342.961V41.4495H314.276V1.73751Z" fill="white"/>
<path d="M349.43 1.73751H359.554V16.8281H374.178V1.73751H384.302V41.4495H374.178V25.2243H359.554V41.4495H349.43V1.73751Z" fill="white"/>
<path d="M401.444 10.1338H389.351V1.73751H423.661V10.1338H411.568V41.4495H401.444V10.1338Z" fill="white"/>
<path d="M445.069 42.187C442.37 42.187 439.895 41.8277 437.645 41.1091C435.395 40.3527 433.464 39.1614 431.852 37.5351C430.277 35.9088 429.039 33.8097 428.139 31.2379C427.239 28.666 426.789 25.5269 426.789 21.8204V20.7425C426.789 17.263 427.258 14.2752 428.196 11.779C429.133 9.28279 430.427 7.24046 432.077 5.65198C433.727 4.0635 435.658 2.89105 437.87 2.13463C440.12 1.37821 442.52 1 445.069 1C447.357 1 449.494 1.26475 451.481 1.79424C453.506 2.32373 455.269 3.1558 456.769 4.29043C458.306 5.42506 459.543 6.90007 460.481 8.71548C461.456 10.5309 462.037 12.7434 462.224 15.3531H451.763C451.575 14.2941 451.275 13.4053 450.863 12.6867C450.45 11.9303 449.944 11.3251 449.344 10.8713C448.744 10.3796 448.069 10.0392 447.319 9.85011C446.607 9.62318 445.857 9.50972 445.069 9.50972C443.944 9.50972 442.895 9.71773 441.92 10.1338C440.982 10.512 440.157 11.1549 439.445 12.0626C438.77 12.9325 438.226 14.0861 437.814 15.5233C437.439 16.9604 437.251 18.7002 437.251 20.7425V21.9339C437.251 24.1275 437.457 25.9807 437.87 27.4936C438.32 28.9686 438.901 30.1789 439.614 31.1244C440.326 32.0321 441.151 32.694 442.088 33.11C443.026 33.4882 444.019 33.6773 445.069 33.6773C446.982 33.6773 448.5 33.2235 449.625 32.3158C450.788 31.3702 451.5 29.8763 451.763 27.834H462.224C462.074 30.4814 461.531 32.7129 460.593 34.5283C459.693 36.3437 458.475 37.8187 456.937 38.9533C455.437 40.088 453.675 40.92 451.65 41.4495C449.625 41.9412 447.432 42.187 445.069 42.187Z" fill="white"/>
<path d="M476.475 10.1338H464.382V1.73751H498.692V10.1338H486.599V41.4495H476.475V10.1338Z" fill="white"/>
<path d="M503.776 1.73751H522.618C527.23 1.73751 530.586 2.66412 532.686 4.51735C534.786 6.33276 535.836 8.9424 535.836 12.3463C535.836 14.3886 535.311 16.1473 534.261 17.6223C533.211 19.0595 531.786 20.0996 529.987 20.7425C532.311 21.272 534.149 22.3499 535.499 23.9762C536.849 25.5647 537.523 27.6449 537.523 30.2167C537.523 33.6962 536.38 36.4382 534.092 38.4428C531.843 40.4473 528.205 41.4495 523.181 41.4495H503.776V1.73751ZM520.931 33.6206C523.368 33.6206 525.056 33.2613 525.993 32.5427C526.93 31.7863 527.399 30.6327 527.399 29.0821C527.399 27.5314 526.912 26.3779 525.937 25.6214C524.999 24.865 523.293 24.4868 520.818 24.4868H513.9V33.6206H520.931ZM520.143 17.5656C522.318 17.5656 523.781 17.2252 524.531 16.5444C525.318 15.8258 525.712 14.8236 525.712 13.5377C525.712 12.2139 525.318 11.2306 524.531 10.5876C523.781 9.90684 522.337 9.56645 520.2 9.56645H513.9V17.5656H520.143Z" fill="white"/>
<path d="M560.876 42.187C558.289 42.187 555.833 41.8088 553.508 41.0524C551.183 40.296 549.14 39.1046 547.377 37.4783C545.653 35.8142 544.284 33.7151 543.271 31.1811C542.259 28.6093 541.753 25.508 541.753 21.8772V20.7425C541.753 17.263 542.259 14.2752 543.271 11.779C544.284 9.28279 545.653 7.24046 547.377 5.65198C549.14 4.0635 551.183 2.89105 553.508 2.13463C555.833 1.37821 558.289 1 560.876 1C563.464 1 565.92 1.37821 568.245 2.13463C570.569 2.89105 572.594 4.0635 574.319 5.65198C576.082 7.24046 577.469 9.28279 578.481 11.779C579.494 14.2752 580 17.263 580 20.7425V21.8772C580 25.508 579.494 28.6093 578.481 31.1811C577.469 33.7151 576.082 35.8142 574.319 37.4783C572.594 39.1046 570.569 40.296 568.245 41.0524C565.92 41.8088 563.464 42.187 560.876 42.187ZM560.876 33.6773C562.001 33.6773 563.089 33.5071 564.139 33.1667C565.189 32.7885 566.107 32.1645 566.895 31.2946C567.682 30.3869 568.32 29.1766 568.807 27.6638C569.295 26.1509 569.538 24.2221 569.538 21.8772V20.7425C569.538 18.5489 569.295 16.7335 568.807 15.2963C568.32 13.8213 567.682 12.6678 566.895 11.8357C566.107 10.9658 565.189 10.3607 564.139 10.0203C563.089 9.67991 562.001 9.50972 560.876 9.50972C559.752 9.50972 558.664 9.67991 557.614 10.0203C556.564 10.3607 555.646 10.9658 554.858 11.8357C554.071 12.6678 553.433 13.8213 552.946 15.2963C552.458 16.7335 552.215 18.5489 552.215 20.7425V21.8772C552.215 24.2221 552.458 26.1509 552.946 27.6638C553.433 29.1766 554.071 30.3869 554.858 31.2946C555.646 32.1645 556.564 32.7885 557.614 33.1667C558.664 33.5071 559.752 33.6773 560.876 33.6773Z" fill="white"/>
<path d="M26.4231 83.6605H13.2616L10.5618 91.2625H1L15.3427 51.5505H25.4669L39.8096 91.2625H29.1229L26.4231 83.6605ZM16.1301 75.8315H23.5546L19.8423 64.0314L16.1301 75.8315Z" fill="white"/>
<path d="M44.3071 51.5505H61.462C66.3742 51.5505 70.0864 52.7418 72.5987 55.1246C75.111 57.5073 76.3672 60.741 76.3672 64.8256C76.3672 67.6622 75.6922 70.1017 74.3423 72.144C73.0299 74.1485 71.0426 75.6235 68.3803 76.5691L77.4921 91.2625H66.2429L58.5935 77.6469H54.4313V91.2625H44.3071V51.5505ZM59.2122 69.7045C61.912 69.7045 63.7494 69.3074 64.7243 68.5132C65.7367 67.6811 66.2429 66.4519 66.2429 64.8256C66.2429 63.1993 65.7367 61.9891 64.7243 61.1948C63.7494 60.3628 61.912 59.9467 59.2122 59.9467H54.4313V69.7045H59.2122Z" fill="white"/>
<path d="M92.1468 59.9467H80.0539V51.5505H114.364V59.9467H102.271V91.2625H92.1468V59.9467Z" fill="white"/>
<path d="M119.448 51.5505H148.133V59.3794H129.572V67.1516H146.446V74.5267H129.572V83.4336H148.133V91.2625H119.448V51.5505Z" fill="white"/>
<path d="M154.602 51.5505H164.726V82.8662H181.6V91.2625H154.602V51.5505Z" fill="white"/>
<path d="M186.679 51.5505H196.803V82.8662H213.677V91.2625H186.679V51.5505Z" fill="white"/>
<path d="M218.757 51.5505H247.442V59.3794H228.881V67.1516H245.755V74.5267H228.881V83.4336H247.442V91.2625H218.757V51.5505Z" fill="white"/>
<path d="M270.51 92C267.81 92 265.335 91.6407 263.085 90.9221C260.835 90.1657 258.904 88.9743 257.292 87.348C255.717 85.7217 254.48 83.6227 253.58 81.0508C252.68 78.479 252.23 75.3399 252.23 71.6334V70.5555C252.23 67.076 252.699 64.0881 253.636 61.5919C254.573 59.0958 255.867 57.0534 257.517 55.465C259.167 53.8765 261.098 52.704 263.31 51.9476C265.56 51.1912 267.96 50.813 270.51 50.813C272.797 50.813 274.934 51.0777 276.922 51.6072C278.947 52.1367 280.709 52.9688 282.209 54.1034C283.746 55.238 284.984 56.713 285.921 58.5285C286.896 60.3439 287.477 62.5564 287.665 65.166H277.203C277.015 64.107 276.715 63.2183 276.303 62.4997C275.891 61.7432 275.384 61.1381 274.784 60.6842C274.184 60.1926 273.509 59.8522 272.759 59.6631C272.047 59.4362 271.297 59.3227 270.51 59.3227C269.385 59.3227 268.335 59.5307 267.36 59.9467C266.422 60.3249 265.598 60.9679 264.885 61.8756C264.21 62.7455 263.666 63.899 263.254 65.3362C262.879 66.7734 262.691 68.5132 262.691 70.5555V71.7469C262.691 73.9405 262.898 75.7937 263.31 77.3066C263.76 78.7816 264.341 79.9919 265.054 80.9374C265.766 81.8451 266.591 82.5069 267.529 82.923C268.466 83.3012 269.46 83.4903 270.51 83.4903C272.422 83.4903 273.941 83.0364 275.066 82.1287C276.228 81.1832 276.94 79.6893 277.203 77.6469H287.665C287.515 80.2944 286.971 82.5259 286.034 84.3413C285.134 86.1567 283.915 87.6317 282.378 88.7663C280.878 89.9009 279.115 90.733 277.09 91.2625C275.066 91.7542 272.872 92 270.51 92Z" fill="white"/>
<path d="M301.915 59.9467H289.822V51.5505H324.132V59.9467H312.039V91.2625H301.915V59.9467Z" fill="white"/>
</g>
<path d="M4.37475 1.73751H19.2799C22.2422 1.73751 24.8857 2.15354 27.2105 2.9856C29.5354 3.77984 31.504 4.9712 33.1164 6.55968C34.7287 8.14816 35.9661 10.1338 36.8286 12.5165C37.691 14.8992 38.1222 17.6412 38.1222 20.7425V21.8772C38.1222 25.0541 37.6723 27.8718 36.7723 30.3302C35.9099 32.7507 34.635 34.793 32.9476 36.4572C31.2977 38.0835 29.2729 39.3315 26.8731 40.2014C24.4732 41.0335 21.7547 41.4495 18.7174 41.4495H4.37475V1.73751ZM18.155 33.0533C19.4299 33.0533 20.6298 32.8642 21.7547 32.486C22.9171 32.0699 23.9295 31.427 24.792 30.5571C25.6919 29.6872 26.3856 28.5337 26.8731 27.0965C27.398 25.6593 27.6605 23.9195 27.6605 21.8772V20.7425C27.6605 18.8137 27.4168 17.1874 26.9293 15.8636C26.4793 14.5021 25.8419 13.4053 25.017 12.5732C24.2295 11.7033 23.2921 11.0793 22.2047 10.7011C21.1172 10.3229 19.9548 10.1338 18.7174 10.1338H14.499V33.0533H18.155Z" fill="white"/>
<path d="M45.1442 1.73751H55.2684V41.4495H45.1442V1.73751Z" fill="white"/>
<path d="M81.1327 42.187C78.4329 42.187 75.9393 41.8088 73.652 41.0524C71.3647 40.296 69.3773 39.1046 67.6899 37.4783C66.0026 35.8142 64.6714 33.6962 63.6965 31.1244C62.7591 28.5526 62.2903 25.4702 62.2903 21.8772V20.7425C62.2903 17.3008 62.7778 14.3508 63.7527 11.8924C64.7277 9.39626 66.0588 7.35392 67.7462 5.76544C69.4336 4.13914 71.4022 2.94778 73.652 2.19136C75.9018 1.39712 78.3017 1 80.8515 1C83.1013 1 85.2011 1.26475 87.151 1.79424C89.1008 2.32373 90.8257 3.1558 92.3256 4.29043C93.8255 5.38723 95.0629 6.80552 96.0378 8.54528C97.0503 10.285 97.7065 12.3652 98.0064 14.7857H87.5447C87.2822 13.7268 86.9073 12.8569 86.4198 12.1761C85.9323 11.4953 85.3886 10.9658 84.7887 10.5876C84.1887 10.1716 83.5513 9.88793 82.8763 9.73664C82.2014 9.58536 81.5264 9.50972 80.8515 9.50972C79.6516 9.50972 78.5454 9.69882 77.533 10.077C76.558 10.4552 75.7143 11.0793 75.0019 11.9492C74.2895 12.8191 73.727 13.9726 73.3145 15.4098C72.9396 16.847 72.7521 18.6246 72.7521 20.7425V21.8772C72.7521 23.9951 72.9583 25.8106 73.3708 27.3234C73.7832 28.7984 74.3457 30.0087 75.0581 30.9542C75.8081 31.8997 76.6893 32.5994 77.7017 33.0533C78.7516 33.4693 79.8953 33.6773 81.1327 33.6773C82.1451 33.6773 83.1388 33.5449 84.1137 33.2802C85.1261 33.0154 86.0073 32.5994 86.7573 32.0321C87.5447 31.4648 88.1822 30.7651 88.6696 29.933C89.1571 29.0632 89.4196 28.0231 89.4571 26.8128H82.2576V20.3454H98.8501V23.0118C98.8501 26.4157 98.4002 29.3279 97.5002 31.7484C96.6378 34.169 95.4191 36.1546 93.8442 37.7052C92.2694 39.2559 90.3945 40.3905 88.2197 41.1091C86.0823 41.8277 83.72 42.187 81.1327 42.187Z" fill="white"/>
<path d="M105.619 1.73751H115.744V41.4495H105.619V1.73751Z" fill="white"/>
<path d="M133.452 10.1338H121.359V1.73751H155.669V10.1338H143.577V41.4495H133.452V10.1338Z" fill="white"/>
<path d="M178.847 33.8475H165.686L162.986 41.4495H153.424L167.767 1.73751H177.891L192.234 41.4495H181.547L178.847 33.8475ZM168.554 26.0186H175.979L172.266 14.2184L168.554 26.0186Z" fill="white"/>
<path d="M196.731 1.73751H206.855V33.0533H223.729V41.4495H196.731V1.73751Z" fill="white"/>
<path d="M264.918 33.8475H251.757L249.057 41.4495H239.495L253.838 1.73751H263.962L278.305 41.4495H267.618L264.918 33.8475ZM254.626 26.0186H262.05L258.338 14.2184L254.626 26.0186Z" fill="white"/>
<path d="M282.802 1.73751H309.238V10.1338H292.927V41.4495H282.802V1.73751Z" fill="white"/>
<path d="M314.276 1.73751H342.961V9.56645H324.4V17.3387H341.274V24.7137H324.4V33.6206H342.961V41.4495H314.276V1.73751Z" fill="white"/>
<path d="M349.43 1.73751H359.554V16.8281H374.178V1.73751H384.302V41.4495H374.178V25.2243H359.554V41.4495H349.43V1.73751Z" fill="white"/>
<path d="M401.444 10.1338H389.351V1.73751H423.661V10.1338H411.568V41.4495H401.444V10.1338Z" fill="white"/>
<path d="M445.069 42.187C442.37 42.187 439.895 41.8277 437.645 41.1091C435.395 40.3527 433.464 39.1614 431.852 37.5351C430.277 35.9088 429.039 33.8097 428.139 31.2379C427.239 28.666 426.789 25.5269 426.789 21.8204V20.7425C426.789 17.263 427.258 14.2752 428.196 11.779C429.133 9.28279 430.427 7.24046 432.077 5.65198C433.727 4.0635 435.658 2.89105 437.87 2.13463C440.12 1.37821 442.52 1 445.069 1C447.357 1 449.494 1.26475 451.481 1.79424C453.506 2.32373 455.269 3.1558 456.769 4.29043C458.306 5.42506 459.543 6.90007 460.481 8.71548C461.456 10.5309 462.037 12.7434 462.224 15.3531H451.763C451.575 14.2941 451.275 13.4053 450.863 12.6867C450.45 11.9303 449.944 11.3251 449.344 10.8713C448.744 10.3796 448.069 10.0392 447.319 9.85011C446.607 9.62318 445.857 9.50972 445.069 9.50972C443.944 9.50972 442.895 9.71773 441.92 10.1338C440.982 10.512 440.157 11.1549 439.445 12.0626C438.77 12.9325 438.226 14.0861 437.814 15.5233C437.439 16.9604 437.251 18.7002 437.251 20.7425V21.9339C437.251 24.1275 437.457 25.9807 437.87 27.4936C438.32 28.9686 438.901 30.1789 439.614 31.1244C440.326 32.0321 441.151 32.694 442.088 33.11C443.026 33.4882 444.019 33.6773 445.069 33.6773C446.982 33.6773 448.5 33.2235 449.625 32.3158C450.788 31.3702 451.5 29.8763 451.763 27.834H462.224C462.074 30.4814 461.531 32.7129 460.593 34.5283C459.693 36.3437 458.475 37.8187 456.937 38.9533C455.437 40.088 453.675 40.92 451.65 41.4495C449.625 41.9412 447.432 42.187 445.069 42.187Z" fill="white"/>
<path d="M476.475 10.1338H464.382V1.73751H498.692V10.1338H486.599V41.4495H476.475V10.1338Z" fill="white"/>
<path d="M503.776 1.73751H522.618C527.23 1.73751 530.586 2.66412 532.686 4.51735C534.786 6.33276 535.836 8.9424 535.836 12.3463C535.836 14.3886 535.311 16.1473 534.261 17.6223C533.211 19.0595 531.786 20.0996 529.987 20.7425C532.311 21.272 534.149 22.3499 535.499 23.9762C536.849 25.5647 537.523 27.6449 537.523 30.2167C537.523 33.6962 536.38 36.4382 534.092 38.4428C531.843 40.4473 528.205 41.4495 523.181 41.4495H503.776V1.73751ZM520.931 33.6206C523.368 33.6206 525.056 33.2613 525.993 32.5427C526.93 31.7863 527.399 30.6327 527.399 29.0821C527.399 27.5314 526.912 26.3779 525.937 25.6214C524.999 24.865 523.293 24.4868 520.818 24.4868H513.9V33.6206H520.931ZM520.143 17.5656C522.318 17.5656 523.781 17.2252 524.531 16.5444C525.318 15.8258 525.712 14.8236 525.712 13.5377C525.712 12.2139 525.318 11.2306 524.531 10.5876C523.781 9.90684 522.337 9.56645 520.2 9.56645H513.9V17.5656H520.143Z" fill="white"/>
<path d="M560.876 42.187C558.289 42.187 555.833 41.8088 553.508 41.0524C551.183 40.296 549.14 39.1046 547.377 37.4783C545.653 35.8142 544.284 33.7151 543.271 31.1811C542.259 28.6093 541.753 25.508 541.753 21.8772V20.7425C541.753 17.263 542.259 14.2752 543.271 11.779C544.284 9.28279 545.653 7.24046 547.377 5.65198C549.14 4.0635 551.183 2.89105 553.508 2.13463C555.833 1.37821 558.289 1 560.876 1C563.464 1 565.92 1.37821 568.245 2.13463C570.569 2.89105 572.594 4.0635 574.319 5.65198C576.082 7.24046 577.469 9.28279 578.481 11.779C579.494 14.2752 580 17.263 580 20.7425V21.8772C580 25.508 579.494 28.6093 578.481 31.1811C577.469 33.7151 576.082 35.8142 574.319 37.4783C572.594 39.1046 570.569 40.296 568.245 41.0524C565.92 41.8088 563.464 42.187 560.876 42.187ZM560.876 33.6773C562.001 33.6773 563.089 33.5071 564.139 33.1667C565.189 32.7885 566.107 32.1645 566.895 31.2946C567.682 30.3869 568.32 29.1766 568.807 27.6638C569.295 26.1509 569.538 24.2221 569.538 21.8772V20.7425C569.538 18.5489 569.295 16.7335 568.807 15.2963C568.32 13.8213 567.682 12.6678 566.895 11.8357C566.107 10.9658 565.189 10.3607 564.139 10.0203C563.089 9.67991 562.001 9.50972 560.876 9.50972C559.752 9.50972 558.664 9.67991 557.614 10.0203C556.564 10.3607 555.646 10.9658 554.858 11.8357C554.071 12.6678 553.433 13.8213 552.946 15.2963C552.458 16.7335 552.215 18.5489 552.215 20.7425V21.8772C552.215 24.2221 552.458 26.1509 552.946 27.6638C553.433 29.1766 554.071 30.3869 554.858 31.2946C555.646 32.1645 556.564 32.7885 557.614 33.1667C558.664 33.5071 559.752 33.6773 560.876 33.6773Z" fill="white"/>
<path d="M26.4231 83.6605H13.2616L10.5618 91.2625H1L15.3427 51.5505H25.4669L39.8096 91.2625H29.1229L26.4231 83.6605ZM16.1301 75.8315H23.5546L19.8423 64.0314L16.1301 75.8315Z" fill="white"/>
<path d="M44.3071 51.5505H61.462C66.3742 51.5505 70.0864 52.7418 72.5987 55.1246C75.111 57.5073 76.3672 60.741 76.3672 64.8256C76.3672 67.6622 75.6922 70.1017 74.3423 72.144C73.0299 74.1485 71.0426 75.6235 68.3803 76.5691L77.4921 91.2625H66.2429L58.5935 77.6469H54.4313V91.2625H44.3071V51.5505ZM59.2122 69.7045C61.912 69.7045 63.7494 69.3074 64.7243 68.5132C65.7367 67.6811 66.2429 66.4519 66.2429 64.8256C66.2429 63.1993 65.7367 61.9891 64.7243 61.1948C63.7494 60.3628 61.912 59.9467 59.2122 59.9467H54.4313V69.7045H59.2122Z" fill="white"/>
<path d="M92.1468 59.9467H80.0539V51.5505H114.364V59.9467H102.271V91.2625H92.1468V59.9467Z" fill="white"/>
<path d="M119.448 51.5505H148.133V59.3794H129.572V67.1516H146.446V74.5267H129.572V83.4336H148.133V91.2625H119.448V51.5505Z" fill="white"/>
<path d="M154.602 51.5505H164.726V82.8662H181.6V91.2625H154.602V51.5505Z" fill="white"/>
<path d="M186.679 51.5505H196.803V82.8662H213.677V91.2625H186.679V51.5505Z" fill="white"/>
<path d="M218.757 51.5505H247.442V59.3794H228.881V67.1516H245.755V74.5267H228.881V83.4336H247.442V91.2625H218.757V51.5505Z" fill="white"/>
<path d="M270.51 92C267.81 92 265.335 91.6407 263.085 90.9221C260.835 90.1657 258.904 88.9743 257.292 87.348C255.717 85.7217 254.48 83.6227 253.58 81.0508C252.68 78.479 252.23 75.3399 252.23 71.6334V70.5555C252.23 67.076 252.699 64.0881 253.636 61.5919C254.573 59.0958 255.867 57.0534 257.517 55.465C259.167 53.8765 261.098 52.704 263.31 51.9476C265.56 51.1912 267.96 50.813 270.51 50.813C272.797 50.813 274.934 51.0777 276.922 51.6072C278.947 52.1367 280.709 52.9688 282.209 54.1034C283.746 55.238 284.984 56.713 285.921 58.5285C286.896 60.3439 287.477 62.5564 287.665 65.166H277.203C277.015 64.107 276.715 63.2183 276.303 62.4997C275.891 61.7432 275.384 61.1381 274.784 60.6842C274.184 60.1926 273.509 59.8522 272.759 59.6631C272.047 59.4362 271.297 59.3227 270.51 59.3227C269.385 59.3227 268.335 59.5307 267.36 59.9467C266.422 60.3249 265.598 60.9679 264.885 61.8756C264.21 62.7455 263.666 63.899 263.254 65.3362C262.879 66.7734 262.691 68.5132 262.691 70.5555V71.7469C262.691 73.9405 262.898 75.7937 263.31 77.3066C263.76 78.7816 264.341 79.9919 265.054 80.9374C265.766 81.8451 266.591 82.5069 267.529 82.923C268.466 83.3012 269.46 83.4903 270.51 83.4903C272.422 83.4903 273.941 83.0364 275.066 82.1287C276.228 81.1832 276.94 79.6893 277.203 77.6469H287.665C287.515 80.2944 286.971 82.5259 286.034 84.3413C285.134 86.1567 283.915 87.6317 282.378 88.7663C280.878 89.9009 279.115 90.733 277.09 91.2625C275.066 91.7542 272.872 92 270.51 92Z" fill="white"/>
<path d="M301.915 59.9467H289.822V51.5505H324.132V59.9467H312.039V91.2625H301.915V59.9467Z" fill="white"/>
<defs>
<filter id="filter0_f_4014_6" x="0" y="0" width="581" height="93" filterUnits="userSpaceOnUse" color-interpolation-filters="sRGB">
<feFlood flood-opacity="0" result="BackgroundImageFix"/>
<feBlend mode="normal" in="SourceGraphic" in2="BackgroundImageFix" result="shape"/>
<feGaussianBlur stdDeviation="0.5" result="effect1_foregroundBlur_4014_6"/>
</filter>
</defs>
</svg>
