<svg width="30" height="30" viewBox="0 0 30 30" fill="none" xmlns="http://www.w3.org/2000/svg">
<path d="M12.4963 18L12.0085 22.8408C12.0085 22.8408 11.8044 24.324 13.3923 22.8408C14.9801 21.3575 16.5 20.2137 16.5 20.2137" fill="#A9C6D8"/>
<path d="M9.40897 16.492L4.44052 14.8863C4.44052 14.8863 3.84673 14.6473 4.03793 14.1055C4.07729 13.9938 4.15669 13.8987 4.3942 13.7353C5.49508 12.9742 24.7705 6.10244 24.7705 6.10244C24.7705 6.10244 25.3148 5.92054 25.6358 6.04152C25.7152 6.0659 25.7866 6.11077 25.8428 6.17153C25.899 6.23229 25.9379 6.30676 25.9556 6.38733C25.9902 6.52963 26.0047 6.67603 25.9986 6.82231C25.9971 6.94885 25.9817 7.06614 25.97 7.25006C25.8526 9.12883 22.3394 23.1507 22.3394 23.1507C22.3394 23.1507 22.1292 23.9712 21.3761 23.9993C21.191 24.0052 21.0067 23.9741 20.834 23.9079C20.6613 23.8416 20.5038 23.7415 20.3709 23.6136C18.8931 22.3527 13.7852 18.9479 12.6565 18.1991C12.631 18.1819 12.6096 18.1595 12.5936 18.1333C12.5776 18.1072 12.5675 18.078 12.5638 18.0476C12.5481 17.9687 12.6346 17.871 12.6346 17.871C12.6346 17.871 21.5288 10.0294 21.7655 9.20623C21.7838 9.14246 21.7146 9.11099 21.6216 9.13893C21.0309 9.35448 10.7903 15.7689 9.66006 16.4768C9.5787 16.5012 9.49271 16.5064 9.40897 16.492Z" fill="white"/>
</svg>
